<?xml version="1.0" encoding="us-ascii" standalone="no"?><svg xmlns="http://www.w3.org/2000/svg" xmlns:xlink="http://www.w3.org/1999/xlink" contentStyleType="text/css" height="3628px" preserveAspectRatio="none" style="width:353px;height:3628px;background:#FFFFFF;" version="1.1" viewBox="0 0 353 3628" width="353px" zoomAndPan="magnify"><defs/><g><ellipse cx="176.5" cy="20" fill="#222222" rx="10" ry="10" style="stroke:#222222;stroke-width:1.0;"/><rect fill="#F1F1F1" height="35.0938" rx="12.5" ry="12.5" style="stroke:#181818;stroke-width:0.5;" width="104" x="124.5" y="50"/><text fill="#000000" font-family="sans-serif" font-size="12" lengthAdjust="spacing" textLength="84" x="134.5" y="72.457">&#20999;&#25563;&#21040;&#19978;&#32026;&#30446;&#37636;</text><rect fill="#F1F1F1" height="35.0938" rx="12.5" ry="12.5" style="stroke:#181818;stroke-width:0.5;" width="135" x="109" y="105.0938"/><text fill="#000000" font-family="sans-serif" font-size="12" lengthAdjust="spacing" textLength="115" x="119" y="127.5508">&#20999;&#25563;&#21040; py_script &#30446;&#37636;</text><rect fill="#F1F1F1" height="35.0938" rx="12.5" ry="12.5" style="stroke:#181818;stroke-width:0.5;" width="185" x="84" y="160.1875"/><text fill="#000000" font-family="sans-serif" font-size="12" lengthAdjust="spacing" textLength="165" x="94" y="182.6445">Step 8: Moving feedback.txt file</text><rect fill="#F1F1F1" height="35.0938" rx="12.5" ry="12.5" style="stroke:#181818;stroke-width:0.5;" width="175" x="89" y="215.2813"/><text fill="#000000" font-family="sans-serif" font-size="12" lengthAdjust="spacing" textLength="155" x="99" y="237.7383">python -u move_feedback.py</text><rect fill="#F1F1F1" height="35.0938" rx="12.5" ry="12.5" style="stroke:#181818;stroke-width:0.5;" width="228" x="62.5" y="270.375"/><text fill="#000000" font-family="sans-serif" font-size="12" lengthAdjust="spacing" textLength="208" x="72.5" y="292.832">Step 9: Installing necessary packages</text><rect fill="#F1F1F1" height="35.0938" rx="12.5" ry="12.5" style="stroke:#181818;stroke-width:0.5;" width="182" x="85.5" y="325.4688"/><text fill="#000000" font-family="sans-serif" font-size="12" lengthAdjust="spacing" textLength="162" x="95.5" y="347.9258">python -u install_packages.py</text><rect fill="#F1F1F1" height="35.0938" rx="12.5" ry="12.5" style="stroke:#181818;stroke-width:0.5;" width="282" x="35.5" y="380.5625"/><text fill="#000000" font-family="sans-serif" font-size="12" lengthAdjust="spacing" textLength="262" x="45.5" y="403.0195">Step 10: Login and update feedback information</text><rect fill="#F1F1F1" height="35.0938" rx="12.5" ry="12.5" style="stroke:#181818;stroke-width:0.5;" width="245" x="54" y="435.6563"/><text fill="#000000" font-family="sans-serif" font-size="12" lengthAdjust="spacing" textLength="225" x="64" y="458.1133">python -u login_and_update_feedback.py</text><rect fill="#F1F1F1" height="35.0938" rx="12.5" ry="12.5" style="stroke:#181818;stroke-width:0.5;" width="204" x="74.5" y="490.75"/><text fill="#000000" font-family="sans-serif" font-size="12" lengthAdjust="spacing" textLength="184" x="84.5" y="513.207">Step 11: Convert from json to .xlsx</text><rect fill="#F1F1F1" height="35.0938" rx="12.5" ry="12.5" style="stroke:#181818;stroke-width:0.5;" width="171" x="91" y="545.8438"/><text fill="#000000" font-family="sans-serif" font-size="12" lengthAdjust="spacing" textLength="151" x="101" y="568.3008">python -u jason_to_excel.py</text><rect fill="#F1F1F1" height="35.0938" rx="12.5" ry="12.5" style="stroke:#181818;stroke-width:0.5;" width="227" x="63" y="600.9375"/><text fill="#000000" font-family="sans-serif" font-size="12" lengthAdjust="spacing" textLength="207" x="73" y="623.3945">Step 12: Extracting data from Excel file</text><rect fill="#F1F1F1" height="35.0938" rx="12.5" ry="12.5" style="stroke:#181818;stroke-width:0.5;" width="189" x="82" y="656.0313"/><text fill="#000000" font-family="sans-serif" font-size="12" lengthAdjust="spacing" textLength="169" x="92" y="678.4883">python -u extract_excel_data.py</text><rect fill="#F1F1F1" height="35.0938" rx="12.5" ry="12.5" style="stroke:#181818;stroke-width:0.5;" width="240" x="56.5" y="711.125"/><text fill="#000000" font-family="sans-serif" font-size="12" lengthAdjust="spacing" textLength="220" x="66.5" y="733.582">Step 13: Extracting and saving data by txt</text><rect fill="#F1F1F1" height="35.0938" rx="12.5" ry="12.5" style="stroke:#181818;stroke-width:0.5;" width="233" x="60" y="766.2188"/><text fill="#000000" font-family="sans-serif" font-size="12" lengthAdjust="spacing" textLength="213" x="70" y="788.6758">python -u extract_and_save_data_txt.py</text><rect fill="#F1F1F1" height="35.0938" rx="12.5" ry="12.5" style="stroke:#181818;stroke-width:0.5;" width="241" x="56" y="821.3125"/><text fill="#000000" font-family="sans-serif" font-size="12" lengthAdjust="spacing" textLength="221" x="66" y="843.7695">Step 14: Checking and creating versions</text><rect fill="#F1F1F1" height="35.0938" rx="12.5" ry="12.5" style="stroke:#181818;stroke-width:0.5;" width="236" x="58.5" y="876.4063"/><text fill="#000000" font-family="sans-serif" font-size="12" lengthAdjust="spacing" textLength="216" x="68.5" y="898.8633">python -u check_and_create_version.py</text><rect fill="#F1F1F1" height="35.0938" rx="12.5" ry="12.5" style="stroke:#181818;stroke-width:0.5;" width="170" x="91.5" y="931.5"/><text fill="#000000" font-family="sans-serif" font-size="12" lengthAdjust="spacing" textLength="150" x="101.5" y="953.957">Step 15: Compressing files</text><rect fill="#F1F1F1" height="35.0938" rx="12.5" ry="12.5" style="stroke:#181818;stroke-width:0.5;" width="174" x="89.5" y="986.5938"/><text fill="#000000" font-family="sans-serif" font-size="12" lengthAdjust="spacing" textLength="154" x="99.5" y="1009.0508">python -u compress_files.py</text><rect fill="#F1F1F1" height="35.0938" rx="12.5" ry="12.5" style="stroke:#181818;stroke-width:0.5;" width="222" x="65.5" y="1041.6875"/><text fill="#000000" font-family="sans-serif" font-size="12" lengthAdjust="spacing" textLength="202" x="75.5" y="1064.1445">Step 16: summary generate excel file</text><rect fill="#F1F1F1" height="35.0938" rx="12.5" ry="12.5" style="stroke:#181818;stroke-width:0.5;" width="140" x="106.5" y="1096.7813"/><text fill="#000000" font-family="sans-serif" font-size="12" lengthAdjust="spacing" textLength="120" x="116.5" y="1119.2383">python -u summary.py</text><rect fill="#F1F1F1" height="35.0938" rx="12.5" ry="12.5" style="stroke:#181818;stroke-width:0.5;" width="285" x="34" y="1151.875"/><text fill="#000000" font-family="sans-serif" font-size="12" lengthAdjust="spacing" textLength="265" x="44" y="1174.332">Step 17: Uploading zip file and getting zip file link</text><rect fill="#F1F1F1" height="35.0938" rx="12.5" ry="12.5" style="stroke:#181818;stroke-width:0.5;" width="204" x="74.5" y="1206.9688"/><text fill="#000000" font-family="sans-serif" font-size="12" lengthAdjust="spacing" textLength="184" x="84.5" y="1229.4258">python -u upload_and_get_link.py</text><rect fill="#F1F1F1" height="35.0938" rx="12.5" ry="12.5" style="stroke:#181818;stroke-width:0.5;" width="156" x="98.5" y="1262.0625"/><text fill="#000000" font-family="sans-serif" font-size="12" lengthAdjust="spacing" textLength="136" x="108.5" y="1284.5195">Step 18: Creating issues</text><rect fill="#F1F1F1" height="35.0938" rx="12.5" ry="12.5" style="stroke:#181818;stroke-width:0.5;" width="184" x="84.5" y="1317.1563"/><text fill="#000000" font-family="sans-serif" font-size="12" lengthAdjust="spacing" textLength="164" x="94.5" y="1339.6133">python -u create_issue_api.py</text><rect fill="#F1F1F1" height="35.0938" rx="12.5" ry="12.5" style="stroke:#181818;stroke-width:0.5;" width="331" x="11" y="1372.25"/><text fill="#000000" font-family="sans-serif" font-size="12" lengthAdjust="spacing" textLength="311" x="21" y="1394.707">Step 19: Moving folders and ZIP file to the parent directory</text><rect fill="#F1F1F1" height="35.0938" rx="12.5" ry="12.5" style="stroke:#181818;stroke-width:0.5;" width="156" x="98.5" y="1476.2617"/><text fill="#000000" font-family="sans-serif" font-size="12" lengthAdjust="spacing" textLength="136" x="108.5" y="1498.7188">&#21034;&#38500; moved_folders &#30446;&#37636;</text><polygon fill="#F1F1F1" points="93.5,1427.3438,259.5,1427.3438,271.5,1439.3438,259.5,1451.3438,93.5,1451.3438,81.5,1439.3438,93.5,1427.3438" style="stroke:#181818;stroke-width:0.5;"/><text fill="#000000" font-family="sans-serif" font-size="11" lengthAdjust="spacing" textLength="22" x="180.5" y="1462.7627">&#23384;&#22312;</text><text fill="#000000" font-family="sans-serif" font-size="11" lengthAdjust="spacing" textLength="166" x="93.5" y="1443.8447">&#27298;&#26597; moved_folders &#30446;&#37636;&#26159;&#21542;&#23384;&#22312;</text><polygon fill="#F1F1F1" points="176.5,1531.3555,188.5,1543.3555,176.5,1555.3555,164.5,1543.3555,176.5,1531.3555" style="stroke:#181818;stroke-width:0.5;"/><rect fill="#F1F1F1" height="35.0938" rx="12.5" ry="12.5" style="stroke:#181818;stroke-width:0.5;" width="156" x="98.5" y="1575.3555"/><text fill="#000000" font-family="sans-serif" font-size="12" lengthAdjust="spacing" textLength="136" x="108.5" y="1597.8125">&#24314;&#31435; moved_folders &#30446;&#37636;</text><rect fill="#F1F1F1" height="35.0938" rx="12.5" ry="12.5" style="stroke:#181818;stroke-width:0.5;" width="197" x="78" y="1679.3672"/><text fill="#000000" font-family="sans-serif" font-size="12" lengthAdjust="spacing" textLength="177" x="88" y="1701.8242">&#31227;&#21205; High &#30446;&#37636;&#21040; moved_folders</text><rect fill="#F1F1F1" height="35.0938" rx="12.5" ry="12.5" style="stroke:#181818;stroke-width:0.5;" width="221" x="66" y="1749.4609"/><text fill="#000000" font-family="sans-serif" font-size="12" lengthAdjust="spacing" textLength="201" x="76" y="1771.918">&#35352;&#37636; High &#30446;&#37636;&#31227;&#21205;&#21040; moved_folders</text><polygon fill="#F1F1F1" points="142.5,1630.4492,210.5,1630.4492,222.5,1642.4492,210.5,1654.4492,142.5,1654.4492,130.5,1642.4492,142.5,1630.4492" style="stroke:#181818;stroke-width:0.5;"/><text fill="#000000" font-family="sans-serif" font-size="11" lengthAdjust="spacing" textLength="22" x="180.5" y="1665.8682">&#23384;&#22312;</text><text fill="#000000" font-family="sans-serif" font-size="11" lengthAdjust="spacing" textLength="68" x="142.5" y="1646.9502">High &#30446;&#37636;&#23384;&#22312;</text><polygon fill="#F1F1F1" points="176.5,1804.5547,188.5,1816.5547,176.5,1828.5547,164.5,1816.5547,176.5,1804.5547" style="stroke:#181818;stroke-width:0.5;"/><rect fill="#F1F1F1" height="35.0938" rx="12.5" ry="12.5" style="stroke:#181818;stroke-width:0.5;" width="215" x="69" y="1897.4727"/><text fill="#000000" font-family="sans-serif" font-size="12" lengthAdjust="spacing" textLength="195" x="79" y="1919.9297">&#31227;&#21205; Medium &#30446;&#37636;&#21040; moved_folders</text><rect fill="#F1F1F1" height="35.0938" rx="12.5" ry="12.5" style="stroke:#181818;stroke-width:0.5;" width="239" x="57" y="1967.5664"/><text fill="#000000" font-family="sans-serif" font-size="12" lengthAdjust="spacing" textLength="219" x="67" y="1990.0234">&#35352;&#37636; Medium &#30446;&#37636;&#31227;&#21205;&#21040; moved_folders</text><polygon fill="#F1F1F1" points="135,1848.5547,218,1848.5547,230,1860.5547,218,1872.5547,135,1872.5547,123,1860.5547,135,1848.5547" style="stroke:#181818;stroke-width:0.5;"/><text fill="#000000" font-family="sans-serif" font-size="11" lengthAdjust="spacing" textLength="22" x="180.5" y="1883.9736">&#23384;&#22312;</text><text fill="#000000" font-family="sans-serif" font-size="11" lengthAdjust="spacing" textLength="83" x="135" y="1865.0557">Medium &#30446;&#37636;&#23384;&#22312;</text><polygon fill="#F1F1F1" points="176.5,2022.6602,188.5,2034.6602,176.5,2046.6602,164.5,2034.6602,176.5,2022.6602" style="stroke:#181818;stroke-width:0.5;"/><rect fill="#F1F1F1" height="35.0938" rx="12.5" ry="12.5" style="stroke:#181818;stroke-width:0.5;" width="194" x="79.5" y="2115.5781"/><text fill="#000000" font-family="sans-serif" font-size="12" lengthAdjust="spacing" textLength="174" x="89.5" y="2138.0352">&#31227;&#21205; Low &#30446;&#37636;&#21040; moved_folders</text><rect fill="#F1F1F1" height="35.0938" rx="12.5" ry="12.5" style="stroke:#181818;stroke-width:0.5;" width="218" x="67.5" y="2185.6719"/><text fill="#000000" font-family="sans-serif" font-size="12" lengthAdjust="spacing" textLength="198" x="77.5" y="2208.1289">&#35352;&#37636; Low &#30446;&#37636;&#31227;&#21205;&#21040; moved_folders</text><polygon fill="#F1F1F1" points="142,2066.6602,211,2066.6602,223,2078.6602,211,2090.6602,142,2090.6602,130,2078.6602,142,2066.6602" style="stroke:#181818;stroke-width:0.5;"/><text fill="#000000" font-family="sans-serif" font-size="11" lengthAdjust="spacing" textLength="22" x="180.5" y="2102.0791">&#23384;&#22312;</text><text fill="#000000" font-family="sans-serif" font-size="11" lengthAdjust="spacing" textLength="69" x="142" y="2083.1611">Low &#30446;&#37636;&#23384;&#22312;</text><polygon fill="#F1F1F1" points="176.5,2240.7656,188.5,2252.7656,176.5,2264.7656,164.5,2252.7656,176.5,2240.7656" style="stroke:#181818;stroke-width:0.5;"/><rect fill="#F1F1F1" height="35.0938" rx="12.5" ry="12.5" style="stroke:#181818;stroke-width:0.5;" width="215" x="69" y="2333.6836"/><text fill="#000000" font-family="sans-serif" font-size="12" lengthAdjust="spacing" textLength="195" x="79" y="2356.1406">&#31227;&#21205; High_txt &#30446;&#37636;&#21040; moved_folders</text><rect fill="#F1F1F1" height="35.0938" rx="12.5" ry="12.5" style="stroke:#181818;stroke-width:0.5;" width="239" x="57" y="2403.7773"/><text fill="#000000" font-family="sans-serif" font-size="12" lengthAdjust="spacing" textLength="219" x="67" y="2426.2344">&#35352;&#37636; High_txt &#30446;&#37636;&#31227;&#21205;&#21040; moved_folders</text><polygon fill="#F1F1F1" points="133.5,2284.7656,219.5,2284.7656,231.5,2296.7656,219.5,2308.7656,133.5,2308.7656,121.5,2296.7656,133.5,2284.7656" style="stroke:#181818;stroke-width:0.5;"/><text fill="#000000" font-family="sans-serif" font-size="11" lengthAdjust="spacing" textLength="22" x="180.5" y="2320.1846">&#23384;&#22312;</text><text fill="#000000" font-family="sans-serif" font-size="11" lengthAdjust="spacing" textLength="86" x="133.5" y="2301.2666">High_txt &#30446;&#37636;&#23384;&#22312;</text><polygon fill="#F1F1F1" points="176.5,2458.8711,188.5,2470.8711,176.5,2482.8711,164.5,2470.8711,176.5,2458.8711" style="stroke:#181818;stroke-width:0.5;"/><rect fill="#F1F1F1" height="35.0938" rx="12.5" ry="12.5" style="stroke:#181818;stroke-width:0.5;" width="233" x="60" y="2551.7891"/><text fill="#000000" font-family="sans-serif" font-size="12" lengthAdjust="spacing" textLength="213" x="70" y="2574.2461">&#31227;&#21205; Medium_txt &#30446;&#37636;&#21040; moved_folders</text><rect fill="#F1F1F1" height="35.0938" rx="12.5" ry="12.5" style="stroke:#181818;stroke-width:0.5;" width="257" x="48" y="2621.8828"/><text fill="#000000" font-family="sans-serif" font-size="12" lengthAdjust="spacing" textLength="237" x="58" y="2644.3398">&#35352;&#37636; Medium_txt &#30446;&#37636;&#31227;&#21205;&#21040; moved_folders</text><polygon fill="#F1F1F1" points="126,2502.8711,227,2502.8711,239,2514.8711,227,2526.8711,126,2526.8711,114,2514.8711,126,2502.8711" style="stroke:#181818;stroke-width:0.5;"/><text fill="#000000" font-family="sans-serif" font-size="11" lengthAdjust="spacing" textLength="22" x="180.5" y="2538.29">&#23384;&#22312;</text><text fill="#000000" font-family="sans-serif" font-size="11" lengthAdjust="spacing" textLength="101" x="126" y="2519.3721">Medium_txt &#30446;&#37636;&#23384;&#22312;</text><polygon fill="#F1F1F1" points="176.5,2676.9766,188.5,2688.9766,176.5,2700.9766,164.5,2688.9766,176.5,2676.9766" style="stroke:#181818;stroke-width:0.5;"/><rect fill="#F1F1F1" height="35.0938" rx="12.5" ry="12.5" style="stroke:#181818;stroke-width:0.5;" width="212" x="70.5" y="2769.8945"/><text fill="#000000" font-family="sans-serif" font-size="12" lengthAdjust="spacing" textLength="192" x="80.5" y="2792.3516">&#31227;&#21205; Low_txt &#30446;&#37636;&#21040; moved_folders</text><rect fill="#F1F1F1" height="35.0938" rx="12.5" ry="12.5" style="stroke:#181818;stroke-width:0.5;" width="236" x="58.5" y="2839.9883"/><text fill="#000000" font-family="sans-serif" font-size="12" lengthAdjust="spacing" textLength="216" x="68.5" y="2862.4453">&#35352;&#37636; Low_txt &#30446;&#37636;&#31227;&#21205;&#21040; moved_folders</text><polygon fill="#F1F1F1" points="133,2720.9766,220,2720.9766,232,2732.9766,220,2744.9766,133,2744.9766,121,2732.9766,133,2720.9766" style="stroke:#181818;stroke-width:0.5;"/><text fill="#000000" font-family="sans-serif" font-size="11" lengthAdjust="spacing" textLength="22" x="180.5" y="2756.3955">&#23384;&#22312;</text><text fill="#000000" font-family="sans-serif" font-size="11" lengthAdjust="spacing" textLength="87" x="133" y="2737.4775">Low_txt &#30446;&#37636;&#23384;&#22312;</text><polygon fill="#F1F1F1" points="176.5,2895.082,188.5,2907.082,176.5,2919.082,164.5,2907.082,176.5,2895.082" style="stroke:#181818;stroke-width:0.5;"/><rect fill="#F1F1F1" height="35.0938" rx="12.5" ry="12.5" style="stroke:#181818;stroke-width:0.5;" width="223" x="65" y="2988"/><text fill="#000000" font-family="sans-serif" font-size="12" lengthAdjust="spacing" textLength="203" x="75" y="3010.457">&#31227;&#21205; summary &#30446;&#37636;&#21040; moved_folders</text><rect fill="#F1F1F1" height="35.0938" rx="12.5" ry="12.5" style="stroke:#181818;stroke-width:0.5;" width="247" x="53" y="3058.0938"/><text fill="#000000" font-family="sans-serif" font-size="12" lengthAdjust="spacing" textLength="227" x="63" y="3080.5508">&#35352;&#37636; summary &#30446;&#37636;&#31227;&#21205;&#21040; moved_folders</text><polygon fill="#F1F1F1" points="131,2939.082,222,2939.082,234,2951.082,222,2963.082,131,2963.082,119,2951.082,131,2939.082" style="stroke:#181818;stroke-width:0.5;"/><text fill="#000000" font-family="sans-serif" font-size="11" lengthAdjust="spacing" textLength="22" x="180.5" y="2974.501">&#23384;&#22312;</text><text fill="#000000" font-family="sans-serif" font-size="11" lengthAdjust="spacing" textLength="91" x="131" y="2955.583">summary &#30446;&#37636;&#23384;&#22312;</text><polygon fill="#F1F1F1" points="176.5,3113.1875,188.5,3125.1875,176.5,3137.1875,164.5,3125.1875,176.5,3113.1875" style="stroke:#181818;stroke-width:0.5;"/><rect fill="#F1F1F1" height="35.0938" rx="12.5" ry="12.5" style="stroke:#181818;stroke-width:0.5;" width="189" x="82" y="3206.1055"/><text fill="#000000" font-family="sans-serif" font-size="12" lengthAdjust="spacing" textLength="169" x="92" y="3228.5625">&#31227;&#21205; ZIP &#27284;&#26696;&#21040; moved_folders</text><rect fill="#F1F1F1" height="35.0938" rx="12.5" ry="12.5" style="stroke:#181818;stroke-width:0.5;" width="213" x="70" y="3276.1992"/><text fill="#000000" font-family="sans-serif" font-size="12" lengthAdjust="spacing" textLength="193" x="80" y="3298.6563">&#35352;&#37636; ZIP &#27284;&#26696;&#31227;&#21205;&#21040; moved_folders</text><polygon fill="#F1F1F1" points="144,3157.1875,209,3157.1875,221,3169.1875,209,3181.1875,144,3181.1875,132,3169.1875,144,3157.1875" style="stroke:#181818;stroke-width:0.5;"/><text fill="#000000" font-family="sans-serif" font-size="11" lengthAdjust="spacing" textLength="22" x="180.5" y="3192.6064">&#23384;&#22312;</text><text fill="#000000" font-family="sans-serif" font-size="11" lengthAdjust="spacing" textLength="65" x="144" y="3173.6885">&#23384;&#22312; ZIP &#27284;&#26696;</text><polygon fill="#F1F1F1" points="176.5,3331.293,188.5,3343.293,176.5,3355.293,164.5,3343.293,176.5,3331.293" style="stroke:#181818;stroke-width:0.5;"/><rect fill="#F1F1F1" height="35.0938" rx="12.5" ry="12.5" style="stroke:#181818;stroke-width:0.5;" width="192" x="80.5" y="3375.293"/><text fill="#000000" font-family="sans-serif" font-size="12" lengthAdjust="spacing" textLength="172" x="90.5" y="3397.75">&#31227;&#21205; moved_folders &#21040;&#19978;&#32026;&#30446;&#37636;</text><rect fill="#F1F1F1" height="35.0938" rx="12.5" ry="12.5" style="stroke:#181818;stroke-width:0.5;" width="92" x="130.5" y="3430.3867"/><text fill="#000000" font-family="sans-serif" font-size="12" lengthAdjust="spacing" textLength="72" x="140.5" y="3452.8438">&#39023;&#31034;&#30446;&#37636;&#20839;&#23481;</text><rect fill="#F1F1F1" height="35.0938" rx="12.5" ry="12.5" style="stroke:#181818;stroke-width:0.5;" width="69" x="142" y="3485.4805"/><text fill="#000000" font-family="sans-serif" font-size="12" lengthAdjust="spacing" textLength="49" x="152" y="3507.9375">&#31561;&#24453; 5 &#31186;</text><rect fill="#F1F1F1" height="35.0938" rx="12.5" ry="12.5" style="stroke:#181818;stroke-width:0.5;" width="163" x="95" y="3540.5742"/><text fill="#000000" font-family="sans-serif" font-size="12" lengthAdjust="spacing" textLength="143" x="105" y="3563.0313">&#39023;&#31034; "All steps completed"</text><ellipse cx="176.5" cy="3606.668" fill="none" rx="11" ry="11" style="stroke:#222222;stroke-width:1.0;"/><ellipse cx="176.5" cy="3606.668" fill="#222222" rx="6" ry="6" style="stroke:#222222;stroke-width:1.0;"/><line style="stroke:#181818;stroke-width:1.0;" x1="176.5" x2="176.5" y1="30" y2="50"/><polygon fill="#181818" points="172.5,40,176.5,50,180.5,40,176.5,44" style="stroke:#181818;stroke-width:1.0;"/><line style="stroke:#181818;stroke-width:1.0;" x1="176.5" x2="176.5" y1="85.0938" y2="105.0938"/><polygon fill="#181818" points="172.5,95.0938,176.5,105.0938,180.5,95.0938,176.5,99.0938" style="stroke:#181818;stroke-width:1.0;"/><line style="stroke:#181818;stroke-width:1.0;" x1="176.5" x2="176.5" y1="140.1875" y2="160.1875"/><polygon fill="#181818" points="172.5,150.1875,176.5,160.1875,180.5,150.1875,176.5,154.1875" style="stroke:#181818;stroke-width:1.0;"/><line style="stroke:#181818;stroke-width:1.0;" x1="176.5" x2="176.5" y1="195.2813" y2="215.2813"/><polygon fill="#181818" points="172.5,205.2813,176.5,215.2813,180.5,205.2813,176.5,209.2813" style="stroke:#181818;stroke-width:1.0;"/><line style="stroke:#181818;stroke-width:1.0;" x1="176.5" x2="176.5" y1="250.375" y2="270.375"/><polygon fill="#181818" points="172.5,260.375,176.5,270.375,180.5,260.375,176.5,264.375" style="stroke:#181818;stroke-width:1.0;"/><line style="stroke:#181818;stroke-width:1.0;" x1="176.5" x2="176.5" y1="305.4688" y2="325.4688"/><polygon fill="#181818" points="172.5,315.4688,176.5,325.4688,180.5,315.4688,176.5,319.4688" style="stroke:#181818;stroke-width:1.0;"/><line style="stroke:#181818;stroke-width:1.0;" x1="176.5" x2="176.5" y1="360.5625" y2="380.5625"/><polygon fill="#181818" points="172.5,370.5625,176.5,380.5625,180.5,370.5625,176.5,374.5625" style="stroke:#181818;stroke-width:1.0;"/><line style="stroke:#181818;stroke-width:1.0;" x1="176.5" x2="176.5" y1="415.6563" y2="435.6563"/><polygon fill="#181818" points="172.5,425.6563,176.5,435.6563,180.5,425.6563,176.5,429.6563" style="stroke:#181818;stroke-width:1.0;"/><line style="stroke:#181818;stroke-width:1.0;" x1="176.5" x2="176.5" y1="470.75" y2="490.75"/><polygon fill="#181818" points="172.5,480.75,176.5,490.75,180.5,480.75,176.5,484.75" style="stroke:#181818;stroke-width:1.0;"/><line style="stroke:#181818;stroke-width:1.0;" x1="176.5" x2="176.5" y1="525.8438" y2="545.8438"/><polygon fill="#181818" points="172.5,535.8438,176.5,545.8438,180.5,535.8438,176.5,539.8438" style="stroke:#181818;stroke-width:1.0;"/><line style="stroke:#181818;stroke-width:1.0;" x1="176.5" x2="176.5" y1="580.9375" y2="600.9375"/><polygon fill="#181818" points="172.5,590.9375,176.5,600.9375,180.5,590.9375,176.5,594.9375" style="stroke:#181818;stroke-width:1.0;"/><line style="stroke:#181818;stroke-width:1.0;" x1="176.5" x2="176.5" y1="636.0313" y2="656.0313"/><polygon fill="#181818" points="172.5,646.0313,176.5,656.0313,180.5,646.0313,176.5,650.0313" style="stroke:#181818;stroke-width:1.0;"/><line style="stroke:#181818;stroke-width:1.0;" x1="176.5" x2="176.5" y1="691.125" y2="711.125"/><polygon fill="#181818" points="172.5,701.125,176.5,711.125,180.5,701.125,176.5,705.125" style="stroke:#181818;stroke-width:1.0;"/><line style="stroke:#181818;stroke-width:1.0;" x1="176.5" x2="176.5" y1="746.2188" y2="766.2188"/><polygon fill="#181818" points="172.5,756.2188,176.5,766.2188,180.5,756.2188,176.5,760.2188" style="stroke:#181818;stroke-width:1.0;"/><line style="stroke:#181818;stroke-width:1.0;" x1="176.5" x2="176.5" y1="801.3125" y2="821.3125"/><polygon fill="#181818" points="172.5,811.3125,176.5,821.3125,180.5,811.3125,176.5,815.3125" style="stroke:#181818;stroke-width:1.0;"/><line style="stroke:#181818;stroke-width:1.0;" x1="176.5" x2="176.5" y1="856.4063" y2="876.4063"/><polygon fill="#181818" points="172.5,866.4063,176.5,876.4063,180.5,866.4063,176.5,870.4063" style="stroke:#181818;stroke-width:1.0;"/><line style="stroke:#181818;stroke-width:1.0;" x1="176.5" x2="176.5" y1="911.5" y2="931.5"/><polygon fill="#181818" points="172.5,921.5,176.5,931.5,180.5,921.5,176.5,925.5" style="stroke:#181818;stroke-width:1.0;"/><line style="stroke:#181818;stroke-width:1.0;" x1="176.5" x2="176.5" y1="966.5938" y2="986.5938"/><polygon fill="#181818" points="172.5,976.5938,176.5,986.5938,180.5,976.5938,176.5,980.5938" style="stroke:#181818;stroke-width:1.0;"/><line style="stroke:#181818;stroke-width:1.0;" x1="176.5" x2="176.5" y1="1021.6875" y2="1041.6875"/><polygon fill="#181818" points="172.5,1031.6875,176.5,1041.6875,180.5,1031.6875,176.5,1035.6875" style="stroke:#181818;stroke-width:1.0;"/><line style="stroke:#181818;stroke-width:1.0;" x1="176.5" x2="176.5" y1="1076.7813" y2="1096.7813"/><polygon fill="#181818" points="172.5,1086.7813,176.5,1096.7813,180.5,1086.7813,176.5,1090.7813" style="stroke:#181818;stroke-width:1.0;"/><line style="stroke:#181818;stroke-width:1.0;" x1="176.5" x2="176.5" y1="1131.875" y2="1151.875"/><polygon fill="#181818" points="172.5,1141.875,176.5,1151.875,180.5,1141.875,176.5,1145.875" style="stroke:#181818;stroke-width:1.0;"/><line style="stroke:#181818;stroke-width:1.0;" x1="176.5" x2="176.5" y1="1186.9688" y2="1206.9688"/><polygon fill="#181818" points="172.5,1196.9688,176.5,1206.9688,180.5,1196.9688,176.5,1200.9688" style="stroke:#181818;stroke-width:1.0;"/><line style="stroke:#181818;stroke-width:1.0;" x1="176.5" x2="176.5" y1="1242.0625" y2="1262.0625"/><polygon fill="#181818" points="172.5,1252.0625,176.5,1262.0625,180.5,1252.0625,176.5,1256.0625" style="stroke:#181818;stroke-width:1.0;"/><line style="stroke:#181818;stroke-width:1.0;" x1="176.5" x2="176.5" y1="1297.1563" y2="1317.1563"/><polygon fill="#181818" points="172.5,1307.1563,176.5,1317.1563,180.5,1307.1563,176.5,1311.1563" style="stroke:#181818;stroke-width:1.0;"/><line style="stroke:#181818;stroke-width:1.0;" x1="176.5" x2="176.5" y1="1352.25" y2="1372.25"/><polygon fill="#181818" points="172.5,1362.25,176.5,1372.25,180.5,1362.25,176.5,1366.25" style="stroke:#181818;stroke-width:1.0;"/><line style="stroke:#181818;stroke-width:1.0;" x1="176.5" x2="176.5" y1="1451.3438" y2="1476.2617"/><polygon fill="#181818" points="172.5,1466.2617,176.5,1476.2617,180.5,1466.2617,176.5,1470.2617" style="stroke:#181818;stroke-width:1.0;"/><line style="stroke:#181818;stroke-width:1.0;" x1="271.5" x2="283.5" y1="1439.3438" y2="1439.3438"/><polygon fill="#181818" points="279.5,1483.8086,283.5,1493.8086,287.5,1483.8086,283.5,1487.8086" style="stroke:#181818;stroke-width:1.0;"/><line style="stroke:#181818;stroke-width:1.0;" x1="283.5" x2="283.5" y1="1439.3438" y2="1543.3555"/><line style="stroke:#181818;stroke-width:1.0;" x1="283.5" x2="188.5" y1="1543.3555" y2="1543.3555"/><polygon fill="#181818" points="198.5,1539.3555,188.5,1543.3555,198.5,1547.3555,194.5,1543.3555" style="stroke:#181818;stroke-width:1.0;"/><line style="stroke:#181818;stroke-width:1.0;" x1="176.5" x2="176.5" y1="1511.3555" y2="1531.3555"/><polygon fill="#181818" points="172.5,1521.3555,176.5,1531.3555,180.5,1521.3555,176.5,1525.3555" style="stroke:#181818;stroke-width:1.0;"/><line style="stroke:#181818;stroke-width:1.0;" x1="176.5" x2="176.5" y1="1407.3438" y2="1427.3438"/><polygon fill="#181818" points="172.5,1417.3438,176.5,1427.3438,180.5,1417.3438,176.5,1421.3438" style="stroke:#181818;stroke-width:1.0;"/><line style="stroke:#181818;stroke-width:1.0;" x1="176.5" x2="176.5" y1="1555.3555" y2="1575.3555"/><polygon fill="#181818" points="172.5,1565.3555,176.5,1575.3555,180.5,1565.3555,176.5,1569.3555" style="stroke:#181818;stroke-width:1.0;"/><line style="stroke:#181818;stroke-width:1.0;" x1="176.5" x2="176.5" y1="1714.4609" y2="1749.4609"/><polygon fill="#181818" points="172.5,1739.4609,176.5,1749.4609,180.5,1739.4609,176.5,1743.4609" style="stroke:#181818;stroke-width:1.0;"/><line style="stroke:#181818;stroke-width:1.0;" x1="176.5" x2="176.5" y1="1654.4492" y2="1679.3672"/><polygon fill="#181818" points="172.5,1669.3672,176.5,1679.3672,180.5,1669.3672,176.5,1673.3672" style="stroke:#181818;stroke-width:1.0;"/><line style="stroke:#181818;stroke-width:1.0;" x1="222.5" x2="297" y1="1642.4492" y2="1642.4492"/><polygon fill="#181818" points="293,1721.9609,297,1731.9609,301,1721.9609,297,1725.9609" style="stroke:#181818;stroke-width:1.0;"/><line style="stroke:#181818;stroke-width:1.0;" x1="297" x2="297" y1="1642.4492" y2="1816.5547"/><line style="stroke:#181818;stroke-width:1.0;" x1="297" x2="188.5" y1="1816.5547" y2="1816.5547"/><polygon fill="#181818" points="198.5,1812.5547,188.5,1816.5547,198.5,1820.5547,194.5,1816.5547" style="stroke:#181818;stroke-width:1.0;"/><line style="stroke:#181818;stroke-width:1.0;" x1="176.5" x2="176.5" y1="1784.5547" y2="1804.5547"/><polygon fill="#181818" points="172.5,1794.5547,176.5,1804.5547,180.5,1794.5547,176.5,1798.5547" style="stroke:#181818;stroke-width:1.0;"/><line style="stroke:#181818;stroke-width:1.0;" x1="176.5" x2="176.5" y1="1610.4492" y2="1630.4492"/><polygon fill="#181818" points="172.5,1620.4492,176.5,1630.4492,180.5,1620.4492,176.5,1624.4492" style="stroke:#181818;stroke-width:1.0;"/><line style="stroke:#181818;stroke-width:1.0;" x1="176.5" x2="176.5" y1="1932.5664" y2="1967.5664"/><polygon fill="#181818" points="172.5,1957.5664,176.5,1967.5664,180.5,1957.5664,176.5,1961.5664" style="stroke:#181818;stroke-width:1.0;"/><line style="stroke:#181818;stroke-width:1.0;" x1="176.5" x2="176.5" y1="1872.5547" y2="1897.4727"/><polygon fill="#181818" points="172.5,1887.4727,176.5,1897.4727,180.5,1887.4727,176.5,1891.4727" style="stroke:#181818;stroke-width:1.0;"/><line style="stroke:#181818;stroke-width:1.0;" x1="230" x2="306" y1="1860.5547" y2="1860.5547"/><polygon fill="#181818" points="302,1940.0664,306,1950.0664,310,1940.0664,306,1944.0664" style="stroke:#181818;stroke-width:1.0;"/><line style="stroke:#181818;stroke-width:1.0;" x1="306" x2="306" y1="1860.5547" y2="2034.6602"/><line style="stroke:#181818;stroke-width:1.0;" x1="306" x2="188.5" y1="2034.6602" y2="2034.6602"/><polygon fill="#181818" points="198.5,2030.6602,188.5,2034.6602,198.5,2038.6602,194.5,2034.6602" style="stroke:#181818;stroke-width:1.0;"/><line style="stroke:#181818;stroke-width:1.0;" x1="176.5" x2="176.5" y1="2002.6602" y2="2022.6602"/><polygon fill="#181818" points="172.5,2012.6602,176.5,2022.6602,180.5,2012.6602,176.5,2016.6602" style="stroke:#181818;stroke-width:1.0;"/><line style="stroke:#181818;stroke-width:1.0;" x1="176.5" x2="176.5" y1="1828.5547" y2="1848.5547"/><polygon fill="#181818" points="172.5,1838.5547,176.5,1848.5547,180.5,1838.5547,176.5,1842.5547" style="stroke:#181818;stroke-width:1.0;"/><line style="stroke:#181818;stroke-width:1.0;" x1="176.5" x2="176.5" y1="2150.6719" y2="2185.6719"/><polygon fill="#181818" points="172.5,2175.6719,176.5,2185.6719,180.5,2175.6719,176.5,2179.6719" style="stroke:#181818;stroke-width:1.0;"/><line style="stroke:#181818;stroke-width:1.0;" x1="176.5" x2="176.5" y1="2090.6602" y2="2115.5781"/><polygon fill="#181818" points="172.5,2105.5781,176.5,2115.5781,180.5,2105.5781,176.5,2109.5781" style="stroke:#181818;stroke-width:1.0;"/><line style="stroke:#181818;stroke-width:1.0;" x1="223" x2="295.5" y1="2078.6602" y2="2078.6602"/><polygon fill="#181818" points="291.5,2158.1719,295.5,2168.1719,299.5,2158.1719,295.5,2162.1719" style="stroke:#181818;stroke-width:1.0;"/><line style="stroke:#181818;stroke-width:1.0;" x1="295.5" x2="295.5" y1="2078.6602" y2="2252.7656"/><line style="stroke:#181818;stroke-width:1.0;" x1="295.5" x2="188.5" y1="2252.7656" y2="2252.7656"/><polygon fill="#181818" points="198.5,2248.7656,188.5,2252.7656,198.5,2256.7656,194.5,2252.7656" style="stroke:#181818;stroke-width:1.0;"/><line style="stroke:#181818;stroke-width:1.0;" x1="176.5" x2="176.5" y1="2220.7656" y2="2240.7656"/><polygon fill="#181818" points="172.5,2230.7656,176.5,2240.7656,180.5,2230.7656,176.5,2234.7656" style="stroke:#181818;stroke-width:1.0;"/><line style="stroke:#181818;stroke-width:1.0;" x1="176.5" x2="176.5" y1="2046.6602" y2="2066.6602"/><polygon fill="#181818" points="172.5,2056.6602,176.5,2066.6602,180.5,2056.6602,176.5,2060.6602" style="stroke:#181818;stroke-width:1.0;"/><line style="stroke:#181818;stroke-width:1.0;" x1="176.5" x2="176.5" y1="2368.7773" y2="2403.7773"/><polygon fill="#181818" points="172.5,2393.7773,176.5,2403.7773,180.5,2393.7773,176.5,2397.7773" style="stroke:#181818;stroke-width:1.0;"/><line style="stroke:#181818;stroke-width:1.0;" x1="176.5" x2="176.5" y1="2308.7656" y2="2333.6836"/><polygon fill="#181818" points="172.5,2323.6836,176.5,2333.6836,180.5,2323.6836,176.5,2327.6836" style="stroke:#181818;stroke-width:1.0;"/><line style="stroke:#181818;stroke-width:1.0;" x1="231.5" x2="306" y1="2296.7656" y2="2296.7656"/><polygon fill="#181818" points="302,2376.2773,306,2386.2773,310,2376.2773,306,2380.2773" style="stroke:#181818;stroke-width:1.0;"/><line style="stroke:#181818;stroke-width:1.0;" x1="306" x2="306" y1="2296.7656" y2="2470.8711"/><line style="stroke:#181818;stroke-width:1.0;" x1="306" x2="188.5" y1="2470.8711" y2="2470.8711"/><polygon fill="#181818" points="198.5,2466.8711,188.5,2470.8711,198.5,2474.8711,194.5,2470.8711" style="stroke:#181818;stroke-width:1.0;"/><line style="stroke:#181818;stroke-width:1.0;" x1="176.5" x2="176.5" y1="2438.8711" y2="2458.8711"/><polygon fill="#181818" points="172.5,2448.8711,176.5,2458.8711,180.5,2448.8711,176.5,2452.8711" style="stroke:#181818;stroke-width:1.0;"/><line style="stroke:#181818;stroke-width:1.0;" x1="176.5" x2="176.5" y1="2264.7656" y2="2284.7656"/><polygon fill="#181818" points="172.5,2274.7656,176.5,2284.7656,180.5,2274.7656,176.5,2278.7656" style="stroke:#181818;stroke-width:1.0;"/><line style="stroke:#181818;stroke-width:1.0;" x1="176.5" x2="176.5" y1="2586.8828" y2="2621.8828"/><polygon fill="#181818" points="172.5,2611.8828,176.5,2621.8828,180.5,2611.8828,176.5,2615.8828" style="stroke:#181818;stroke-width:1.0;"/><line style="stroke:#181818;stroke-width:1.0;" x1="176.5" x2="176.5" y1="2526.8711" y2="2551.7891"/><polygon fill="#181818" points="172.5,2541.7891,176.5,2551.7891,180.5,2541.7891,176.5,2545.7891" style="stroke:#181818;stroke-width:1.0;"/><line style="stroke:#181818;stroke-width:1.0;" x1="239" x2="315" y1="2514.8711" y2="2514.8711"/><polygon fill="#181818" points="311,2594.3828,315,2604.3828,319,2594.3828,315,2598.3828" style="stroke:#181818;stroke-width:1.0;"/><line style="stroke:#181818;stroke-width:1.0;" x1="315" x2="315" y1="2514.8711" y2="2688.9766"/><line style="stroke:#181818;stroke-width:1.0;" x1="315" x2="188.5" y1="2688.9766" y2="2688.9766"/><polygon fill="#181818" points="198.5,2684.9766,188.5,2688.9766,198.5,2692.9766,194.5,2688.9766" style="stroke:#181818;stroke-width:1.0;"/><line style="stroke:#181818;stroke-width:1.0;" x1="176.5" x2="176.5" y1="2656.9766" y2="2676.9766"/><polygon fill="#181818" points="172.5,2666.9766,176.5,2676.9766,180.5,2666.9766,176.5,2670.9766" style="stroke:#181818;stroke-width:1.0;"/><line style="stroke:#181818;stroke-width:1.0;" x1="176.5" x2="176.5" y1="2482.8711" y2="2502.8711"/><polygon fill="#181818" points="172.5,2492.8711,176.5,2502.8711,180.5,2492.8711,176.5,2496.8711" style="stroke:#181818;stroke-width:1.0;"/><line style="stroke:#181818;stroke-width:1.0;" x1="176.5" x2="176.5" y1="2804.9883" y2="2839.9883"/><polygon fill="#181818" points="172.5,2829.9883,176.5,2839.9883,180.5,2829.9883,176.5,2833.9883" style="stroke:#181818;stroke-width:1.0;"/><line style="stroke:#181818;stroke-width:1.0;" x1="176.5" x2="176.5" y1="2744.9766" y2="2769.8945"/><polygon fill="#181818" points="172.5,2759.8945,176.5,2769.8945,180.5,2759.8945,176.5,2763.8945" style="stroke:#181818;stroke-width:1.0;"/><line style="stroke:#181818;stroke-width:1.0;" x1="232" x2="304.5" y1="2732.9766" y2="2732.9766"/><polygon fill="#181818" points="300.5,2812.4883,304.5,2822.4883,308.5,2812.4883,304.5,2816.4883" style="stroke:#181818;stroke-width:1.0;"/><line style="stroke:#181818;stroke-width:1.0;" x1="304.5" x2="304.5" y1="2732.9766" y2="2907.082"/><line style="stroke:#181818;stroke-width:1.0;" x1="304.5" x2="188.5" y1="2907.082" y2="2907.082"/><polygon fill="#181818" points="198.5,2903.082,188.5,2907.082,198.5,2911.082,194.5,2907.082" style="stroke:#181818;stroke-width:1.0;"/><line style="stroke:#181818;stroke-width:1.0;" x1="176.5" x2="176.5" y1="2875.082" y2="2895.082"/><polygon fill="#181818" points="172.5,2885.082,176.5,2895.082,180.5,2885.082,176.5,2889.082" style="stroke:#181818;stroke-width:1.0;"/><line style="stroke:#181818;stroke-width:1.0;" x1="176.5" x2="176.5" y1="2700.9766" y2="2720.9766"/><polygon fill="#181818" points="172.5,2710.9766,176.5,2720.9766,180.5,2710.9766,176.5,2714.9766" style="stroke:#181818;stroke-width:1.0;"/><line style="stroke:#181818;stroke-width:1.0;" x1="176.5" x2="176.5" y1="3023.0938" y2="3058.0938"/><polygon fill="#181818" points="172.5,3048.0938,176.5,3058.0938,180.5,3048.0938,176.5,3052.0938" style="stroke:#181818;stroke-width:1.0;"/><line style="stroke:#181818;stroke-width:1.0;" x1="176.5" x2="176.5" y1="2963.082" y2="2988"/><polygon fill="#181818" points="172.5,2978,176.5,2988,180.5,2978,176.5,2982" style="stroke:#181818;stroke-width:1.0;"/><line style="stroke:#181818;stroke-width:1.0;" x1="234" x2="310" y1="2951.082" y2="2951.082"/><polygon fill="#181818" points="306,3030.5938,310,3040.5938,314,3030.5938,310,3034.5938" style="stroke:#181818;stroke-width:1.0;"/><line style="stroke:#181818;stroke-width:1.0;" x1="310" x2="310" y1="2951.082" y2="3125.1875"/><line style="stroke:#181818;stroke-width:1.0;" x1="310" x2="188.5" y1="3125.1875" y2="3125.1875"/><polygon fill="#181818" points="198.5,3121.1875,188.5,3125.1875,198.5,3129.1875,194.5,3125.1875" style="stroke:#181818;stroke-width:1.0;"/><line style="stroke:#181818;stroke-width:1.0;" x1="176.5" x2="176.5" y1="3093.1875" y2="3113.1875"/><polygon fill="#181818" points="172.5,3103.1875,176.5,3113.1875,180.5,3103.1875,176.5,3107.1875" style="stroke:#181818;stroke-width:1.0;"/><line style="stroke:#181818;stroke-width:1.0;" x1="176.5" x2="176.5" y1="2919.082" y2="2939.082"/><polygon fill="#181818" points="172.5,2929.082,176.5,2939.082,180.5,2929.082,176.5,2933.082" style="stroke:#181818;stroke-width:1.0;"/><line style="stroke:#181818;stroke-width:1.0;" x1="176.5" x2="176.5" y1="3241.1992" y2="3276.1992"/><polygon fill="#181818" points="172.5,3266.1992,176.5,3276.1992,180.5,3266.1992,176.5,3270.1992" style="stroke:#181818;stroke-width:1.0;"/><line style="stroke:#181818;stroke-width:1.0;" x1="176.5" x2="176.5" y1="3181.1875" y2="3206.1055"/><polygon fill="#181818" points="172.5,3196.1055,176.5,3206.1055,180.5,3196.1055,176.5,3200.1055" style="stroke:#181818;stroke-width:1.0;"/><line style="stroke:#181818;stroke-width:1.0;" x1="221" x2="293" y1="3169.1875" y2="3169.1875"/><polygon fill="#181818" points="289,3248.6992,293,3258.6992,297,3248.6992,293,3252.6992" style="stroke:#181818;stroke-width:1.0;"/><line style="stroke:#181818;stroke-width:1.0;" x1="293" x2="293" y1="3169.1875" y2="3343.293"/><line style="stroke:#181818;stroke-width:1.0;" x1="293" x2="188.5" y1="3343.293" y2="3343.293"/><polygon fill="#181818" points="198.5,3339.293,188.5,3343.293,198.5,3347.293,194.5,3343.293" style="stroke:#181818;stroke-width:1.0;"/><line style="stroke:#181818;stroke-width:1.0;" x1="176.5" x2="176.5" y1="3311.293" y2="3331.293"/><polygon fill="#181818" points="172.5,3321.293,176.5,3331.293,180.5,3321.293,176.5,3325.293" style="stroke:#181818;stroke-width:1.0;"/><line style="stroke:#181818;stroke-width:1.0;" x1="176.5" x2="176.5" y1="3137.1875" y2="3157.1875"/><polygon fill="#181818" points="172.5,3147.1875,176.5,3157.1875,180.5,3147.1875,176.5,3151.1875" style="stroke:#181818;stroke-width:1.0;"/><line style="stroke:#181818;stroke-width:1.0;" x1="176.5" x2="176.5" y1="3355.293" y2="3375.293"/><polygon fill="#181818" points="172.5,3365.293,176.5,3375.293,180.5,3365.293,176.5,3369.293" style="stroke:#181818;stroke-width:1.0;"/><line style="stroke:#181818;stroke-width:1.0;" x1="176.5" x2="176.5" y1="3410.3867" y2="3430.3867"/><polygon fill="#181818" points="172.5,3420.3867,176.5,3430.3867,180.5,3420.3867,176.5,3424.3867" style="stroke:#181818;stroke-width:1.0;"/><line style="stroke:#181818;stroke-width:1.0;" x1="176.5" x2="176.5" y1="3465.4805" y2="3485.4805"/><polygon fill="#181818" points="172.5,3475.4805,176.5,3485.4805,180.5,3475.4805,176.5,3479.4805" style="stroke:#181818;stroke-width:1.0;"/><line style="stroke:#181818;stroke-width:1.0;" x1="176.5" x2="176.5" y1="3520.5742" y2="3540.5742"/><polygon fill="#181818" points="172.5,3530.5742,176.5,3540.5742,180.5,3530.5742,176.5,3534.5742" style="stroke:#181818;stroke-width:1.0;"/><line style="stroke:#181818;stroke-width:1.0;" x1="176.5" x2="176.5" y1="3575.668" y2="3595.668"/><polygon fill="#181818" points="172.5,3585.668,176.5,3595.668,180.5,3585.668,176.5,3589.668" style="stroke:#181818;stroke-width:1.0;"/><!--SRC=[bPP1RzCm5CVl_HHFEuq34mC6B3sXQHAJDWa9SU4IUSbhwos9ezWjBMSc1aC28P06Gq93Wqr3spXmW4tYqv26VWji9sdZhhHfR_NxlR__xptRBHSa4fMA5My_wxxQYxU___dv8ldn8TaxxRryMYsiGzYnkHFHK40Uh5WF18Pmnu8rrg917Mg8xZfnDkT4Mq2DUYW5mevei02kDi5dBRJxIDZf2onQi19mGJnFYGJe8ESawa0eEL97RgZGbBJpO55e_fe5gwnE0o212ytG9GBxfcHcZKK-4PG5XgAdCcoPOQSP8ptEprkmn88MHhAoYFcmmMMsO33NzdZRqDiWCcGBPcFRGSyGkMx1Sbj4n16gKhaPISMM5NcvOvYogP2jS4FjXg6cIkQarHTUxu0SmqWzLQj4KKlQaZ9aRyfA6-Xivg9EX4Jl88ldiddcF1o5QaNDePrHXkI2QfuVHdAm-fp8GeTKigYjGqRkBGjuq_VLWQXZW96QAOxkLyOPwRSjU1XwZBXguoSqr5cwhZeAOIpAuxTfw3LreYvEmhQA6zhov2_bpQ6SDuUBIXkY8pO9gP6xEBWrp7DbpxIdHoltKo_oP8a6oYiGOI30fH4wWaKgdzPWjdlykVlfYxvHhftdfzUoktiMl_uQd-p67u-kA8q0PhDl5P0VUQEFU-yFHkPMAnYujAQUWulpvDlEVo1juHwjDxALCPibXnVnpZieml8fCMIhAVdtQ5T6YsIQEuBFJ2eNQ-ZIfb_QXucFTsAmPRoiiiUbZHJOyIu6O1aBgdlgFayrc6B2vE4KwF83cihJvPGoWvhIb-phLAQ6-8b3cz9E_iALjJF4ZxTZmcNif5lgrwXx_BQxlptEou2Qu6C0JlAGIvllpwL_9nMhjt-M79ndNTWwZ4z_gTNav7dyUmiM83byCw1Wvgxd0PUlBzU_DnuAT6Ug5IvO-0y0]--></g></svg>