<?xml version="1.0" encoding="us-ascii" standalone="no"?><svg xmlns="http://www.w3.org/2000/svg" xmlns:xlink="http://www.w3.org/1999/xlink" contentStyleType="text/css" height="1417px" preserveAspectRatio="none" style="width:705px;height:1417px;background:#FFFFFF;" version="1.1" viewBox="0 0 705 1417" width="705px" zoomAndPan="magnify"><defs/><g><text fill="#000000" font-family="sans-serif" font-size="14" font-weight="bold" lengthAdjust="spacing" textLength="292" x="205.375" y="34.5332">Nmap CVE Scanning and Upload Workflow</text><ellipse cx="306.75" cy="58.6094" fill="#222222" rx="10" ry="10" style="stroke:#222222;stroke-width:1.0;"/><rect fill="#F1F1F1" height="35.0938" rx="12.5" ry="12.5" style="stroke:#181818;stroke-width:0.5;" width="155" x="229.25" y="88.6094"/><text fill="#000000" font-family="sans-serif" font-size="12" lengthAdjust="spacing" textLength="135" x="239.25" y="111.0664">Copy script to remote VM</text><rect fill="#F1F1F1" height="35.0938" rx="12.5" ry="12.5" style="stroke:#181818;stroke-width:0.5;" width="192" x="210.75" y="143.7031"/><text fill="#000000" font-family="sans-serif" font-size="12" lengthAdjust="spacing" textLength="172" x="220.75" y="166.1602">Execute script remotely via SSH</text><rect fill="#F1F1F1" height="35.0938" rx="12.5" ry="12.5" style="stroke:#181818;stroke-width:0.5;" width="289" x="162.25" y="198.7969"/><text fill="#000000" font-family="sans-serif" font-size="12" lengthAdjust="spacing" textLength="269" x="172.25" y="221.2539">Script determines scan mode and performs scan</text><polygon fill="#F1F1F1" points="260.25,253.8906,353.25,253.8906,365.25,265.8906,353.25,277.8906,260.25,277.8906,248.25,265.8906,260.25,253.8906" style="stroke:#181818;stroke-width:0.5;"/><text fill="#000000" font-family="sans-serif" font-size="11" lengthAdjust="spacing" textLength="93" x="260.25" y="270.3916">Scan mode is port?</text><text fill="#000000" font-family="sans-serif" font-size="11" lengthAdjust="spacing" textLength="18" x="230.25" y="263.4736">yes</text><text fill="#000000" font-family="sans-serif" font-size="11" lengthAdjust="spacing" textLength="12" x="365.25" y="263.4736">no</text><rect fill="#F1F1F1" height="35.0938" rx="12.5" ry="12.5" style="stroke:#181818;stroke-width:0.5;" width="118" x="178" y="287.8906"/><text fill="#000000" font-family="sans-serif" font-size="12" lengthAdjust="spacing" textLength="98" x="188" y="310.3477">Perform port scan</text><rect fill="#F1F1F1" height="35.0938" rx="12.5" ry="12.5" style="stroke:#181818;stroke-width:0.5;" width="121" x="316" y="287.8906"/><text fill="#000000" font-family="sans-serif" font-size="12" lengthAdjust="spacing" textLength="101" x="326" y="310.3477">Perform CVE scan</text><polygon fill="#F1F1F1" points="306.75,328.9844,318.75,340.9844,306.75,352.9844,294.75,340.9844,306.75,328.9844" style="stroke:#181818;stroke-width:0.5;"/><rect fill="#F1F1F1" height="35.0938" rx="12.5" ry="12.5" style="stroke:#181818;stroke-width:0.5;" width="136" x="238.75" y="372.9844"/><text fill="#000000" font-family="sans-serif" font-size="12" lengthAdjust="spacing" textLength="116" x="248.75" y="395.4414">Retrieve scan results</text><rect fill="#F1F1F1" height="35.0938" rx="12.5" ry="12.5" style="stroke:#181818;stroke-width:0.5;" width="206" x="203.75" y="428.0781"/><text fill="#000000" font-family="sans-serif" font-size="12" lengthAdjust="spacing" textLength="186" x="213.75" y="450.5352">Convert results to HTML summary</text><rect fill="#F1F1F1" height="35.0938" rx="12.5" ry="12.5" style="stroke:#181818;stroke-width:0.5;" width="139" x="237.25" y="483.1719"/><text fill="#000000" font-family="sans-serif" font-size="12" lengthAdjust="spacing" textLength="119" x="247.25" y="505.6289">Compress result files</text><rect fill="#F1F1F1" height="35.0938" rx="12.5" ry="12.5" style="stroke:#181818;stroke-width:0.5;" width="137" x="238.25" y="538.2656"/><text fill="#000000" font-family="sans-serif" font-size="12" lengthAdjust="spacing" textLength="117" x="248.25" y="560.7227">Upload Process Start</text><rect fill="#F1F1F1" height="35.0938" rx="12.5" ry="12.5" style="stroke:#181818;stroke-width:0.5;" width="211" x="201.25" y="650.2783"/><text fill="#000000" font-family="sans-serif" font-size="12" lengthAdjust="spacing" textLength="191" x="211.25" y="672.7354">Prompt user to re-enter credentials</text><polygon fill="#F1F1F1" points="223.25,593.3594,390.25,593.3594,402.25,605.3594,390.25,617.3594,223.25,617.3594,211.25,605.3594,223.25,593.3594" style="stroke:#181818;stroke-width:0.5;"/><text fill="#000000" font-family="sans-serif" font-size="11" lengthAdjust="spacing" textLength="12" x="310.75" y="628.7783">no</text><text fill="#000000" font-family="sans-serif" font-size="11" lengthAdjust="spacing" textLength="167" x="223.25" y="609.8604">Username and password correct?</text><text fill="#000000" font-family="sans-serif" font-size="11" lengthAdjust="spacing" textLength="18" x="193.25" y="602.9424">yes</text><rect fill="#F1F1F1" height="35.0938" rx="12.5" ry="12.5" style="stroke:#181818;stroke-width:0.5;" width="98" x="257.75" y="727.3721"/><text fill="#000000" font-family="sans-serif" font-size="12" lengthAdjust="spacing" textLength="78" x="267.75" y="749.8291">Check version</text><polygon fill="#F1F1F1" points="268.75,782.4658,344.75,782.4658,356.75,794.4658,344.75,806.4658,268.75,806.4658,256.75,794.4658,268.75,782.4658" style="stroke:#181818;stroke-width:0.5;"/><text fill="#000000" font-family="sans-serif" font-size="11" lengthAdjust="spacing" textLength="76" x="268.75" y="798.9668">Version exists?</text><text fill="#000000" font-family="sans-serif" font-size="11" lengthAdjust="spacing" textLength="12" x="244.75" y="792.0488">no</text><text fill="#000000" font-family="sans-serif" font-size="11" lengthAdjust="spacing" textLength="18" x="356.75" y="792.0488">yes</text><rect fill="#F1F1F1" height="35.0938" rx="12.5" ry="12.5" style="stroke:#181818;stroke-width:0.5;" width="100" x="117.5" y="816.4658"/><text fill="#000000" font-family="sans-serif" font-size="12" lengthAdjust="spacing" textLength="80" x="127.5" y="838.9229">Create version</text><polygon fill="#F1F1F1" points="96,871.5596,239,871.5596,251,883.5596,239,895.5596,96,895.5596,84,883.5596,96,871.5596" style="stroke:#181818;stroke-width:0.5;"/><text fill="#000000" font-family="sans-serif" font-size="11" lengthAdjust="spacing" textLength="143" x="96" y="888.0605">Version creation successful?</text><text fill="#000000" font-family="sans-serif" font-size="11" lengthAdjust="spacing" textLength="18" x="66" y="881.1426">yes</text><text fill="#000000" font-family="sans-serif" font-size="11" lengthAdjust="spacing" textLength="12" x="251" y="881.1426">no</text><rect fill="#F1F1F1" height="35.0938" rx="12.5" ry="12.5" style="stroke:#181818;stroke-width:0.5;" width="97" x="25.5" y="905.5596"/><text fill="#000000" font-family="sans-serif" font-size="12" lengthAdjust="spacing" textLength="77" x="35.5" y="928.0166">Upload zip file</text><rect fill="#F1F1F1" height="35.0938" rx="12.5" ry="12.5" style="stroke:#181818;stroke-width:0.5;" width="119" x="14.5" y="975.6533"/><text fill="#000000" font-family="sans-serif" font-size="12" lengthAdjust="spacing" textLength="99" x="24.5" y="998.1104">Obtain upload link</text><rect fill="#F1F1F1" height="35.0938" rx="12.5" ry="12.5" style="stroke:#181818;stroke-width:0.5;" width="126" x="11" y="1030.7471"/><text fill="#000000" font-family="sans-serif" font-size="12" lengthAdjust="spacing" textLength="106" x="21" y="1053.2041">Create Bug Tracker</text><rect fill="#F1F1F1" height="35.0938" rx="12.5" ry="12.5" style="stroke:#181818;stroke-width:0.5;" width="184" x="169" y="905.5596"/><text fill="#000000" font-family="sans-serif" font-size="12" lengthAdjust="spacing" textLength="164" x="179" y="928.0166">Report version creation failure</text><polygon fill="#F1F1F1" points="167.5,1071.8408,179.5,1083.8408,167.5,1095.8408,155.5,1083.8408,167.5,1071.8408" style="stroke:#181818;stroke-width:0.5;"/><rect fill="#F1F1F1" height="35.0938" rx="12.5" ry="12.5" style="stroke:#181818;stroke-width:0.5;" width="97" x="397.5" y="816.4658"/><text fill="#000000" font-family="sans-serif" font-size="12" lengthAdjust="spacing" textLength="77" x="407.5" y="838.9229">Upload zip file</text><rect fill="#F1F1F1" height="35.0938" rx="12.5" ry="12.5" style="stroke:#181818;stroke-width:0.5;" width="119" x="386.5" y="871.5596"/><text fill="#000000" font-family="sans-serif" font-size="12" lengthAdjust="spacing" textLength="99" x="396.5" y="894.0166">Obtain upload link</text><rect fill="#F1F1F1" height="35.0938" rx="12.5" ry="12.5" style="stroke:#181818;stroke-width:0.5;" width="126" x="383" y="941.6533"/><text fill="#000000" font-family="sans-serif" font-size="12" lengthAdjust="spacing" textLength="106" x="393" y="964.1104">Create Bug Tracker</text><polygon fill="#F1F1F1" points="306.75,1101.8408,318.75,1113.8408,306.75,1125.8408,294.75,1113.8408,306.75,1101.8408" style="stroke:#181818;stroke-width:0.5;"/><polygon fill="#F1F1F1" points="260.25,1145.8408,353.25,1145.8408,365.25,1157.8408,353.25,1169.8408,260.25,1169.8408,248.25,1157.8408,260.25,1145.8408" style="stroke:#181818;stroke-width:0.5;"/><text fill="#000000" font-family="sans-serif" font-size="11" lengthAdjust="spacing" textLength="93" x="260.25" y="1162.3418">Scan mode is port?</text><text fill="#000000" font-family="sans-serif" font-size="11" lengthAdjust="spacing" textLength="18" x="230.25" y="1155.4238">yes</text><text fill="#000000" font-family="sans-serif" font-size="11" lengthAdjust="spacing" textLength="12" x="365.25" y="1155.4238">no</text><rect fill="#F1F1F1" height="35.0938" rx="12.5" ry="12.5" style="stroke:#181818;stroke-width:0.5;" width="202" x="32.75" y="1179.8408"/><text fill="#000000" font-family="sans-serif" font-size="12" lengthAdjust="spacing" textLength="182" x="42.75" y="1202.2979">Display HTML report for port scan</text><polygon fill="#F1F1F1" points="432.25,1179.8408,527.25,1179.8408,539.25,1191.8408,527.25,1203.8408,432.25,1203.8408,420.25,1191.8408,432.25,1179.8408" style="stroke:#181818;stroke-width:0.5;"/><text fill="#000000" font-family="sans-serif" font-size="11" lengthAdjust="spacing" textLength="95" x="432.25" y="1196.3418">Scan mode is CVE?</text><text fill="#000000" font-family="sans-serif" font-size="11" lengthAdjust="spacing" textLength="18" x="402.25" y="1189.4238">yes</text><text fill="#000000" font-family="sans-serif" font-size="11" lengthAdjust="spacing" textLength="12" x="539.25" y="1189.4238">no</text><rect fill="#F1F1F1" height="35.0938" rx="12.5" ry="12.5" style="stroke:#181818;stroke-width:0.5;" width="205" x="264.75" y="1213.8408"/><text fill="#000000" font-family="sans-serif" font-size="12" lengthAdjust="spacing" textLength="185" x="274.75" y="1236.2979">Display HTML report for CVE scan</text><rect fill="#F1F1F1" height="35.0938" rx="12.5" ry="12.5" style="stroke:#181818;stroke-width:0.5;" width="202" x="491.25" y="1213.8408"/><text fill="#000000" font-family="sans-serif" font-size="12" lengthAdjust="spacing" textLength="182" x="501.25" y="1236.2979">Display HTML report for port scan</text><rect fill="#F1F1F1" height="35.0938" rx="12.5" ry="12.5" style="stroke:#181818;stroke-width:0.5;" width="205" x="489.75" y="1268.9346"/><text fill="#000000" font-family="sans-serif" font-size="12" lengthAdjust="spacing" textLength="185" x="499.75" y="1291.3916">Display HTML report for CVE scan</text><polygon fill="#F1F1F1" points="479.75,1310.0283,491.75,1322.0283,479.75,1334.0283,467.75,1322.0283,479.75,1310.0283" style="stroke:#181818;stroke-width:0.5;"/><polygon fill="#F1F1F1" points="306.75,1340.0283,318.75,1352.0283,306.75,1364.0283,294.75,1352.0283,306.75,1340.0283" style="stroke:#181818;stroke-width:0.5;"/><ellipse cx="306.75" cy="1395.0283" fill="none" rx="11" ry="11" style="stroke:#222222;stroke-width:1.0;"/><ellipse cx="306.75" cy="1395.0283" fill="#222222" rx="6" ry="6" style="stroke:#222222;stroke-width:1.0;"/><line style="stroke:#181818;stroke-width:1.0;" x1="306.75" x2="306.75" y1="68.6094" y2="88.6094"/><polygon fill="#181818" points="302.75,78.6094,306.75,88.6094,310.75,78.6094,306.75,82.6094" style="stroke:#181818;stroke-width:1.0;"/><line style="stroke:#181818;stroke-width:1.0;" x1="306.75" x2="306.75" y1="123.7031" y2="143.7031"/><polygon fill="#181818" points="302.75,133.7031,306.75,143.7031,310.75,133.7031,306.75,137.7031" style="stroke:#181818;stroke-width:1.0;"/><line style="stroke:#181818;stroke-width:1.0;" x1="306.75" x2="306.75" y1="178.7969" y2="198.7969"/><polygon fill="#181818" points="302.75,188.7969,306.75,198.7969,310.75,188.7969,306.75,192.7969" style="stroke:#181818;stroke-width:1.0;"/><line style="stroke:#181818;stroke-width:1.0;" x1="248.25" x2="237" y1="265.8906" y2="265.8906"/><line style="stroke:#181818;stroke-width:1.0;" x1="237" x2="237" y1="265.8906" y2="287.8906"/><polygon fill="#181818" points="233,277.8906,237,287.8906,241,277.8906,237,281.8906" style="stroke:#181818;stroke-width:1.0;"/><line style="stroke:#181818;stroke-width:1.0;" x1="365.25" x2="376.5" y1="265.8906" y2="265.8906"/><line style="stroke:#181818;stroke-width:1.0;" x1="376.5" x2="376.5" y1="265.8906" y2="287.8906"/><polygon fill="#181818" points="372.5,277.8906,376.5,287.8906,380.5,277.8906,376.5,281.8906" style="stroke:#181818;stroke-width:1.0;"/><line style="stroke:#181818;stroke-width:1.0;" x1="237" x2="237" y1="322.9844" y2="340.9844"/><line style="stroke:#181818;stroke-width:1.0;" x1="237" x2="294.75" y1="340.9844" y2="340.9844"/><polygon fill="#181818" points="284.75,336.9844,294.75,340.9844,284.75,344.9844,288.75,340.9844" style="stroke:#181818;stroke-width:1.0;"/><line style="stroke:#181818;stroke-width:1.0;" x1="376.5" x2="376.5" y1="322.9844" y2="340.9844"/><line style="stroke:#181818;stroke-width:1.0;" x1="376.5" x2="318.75" y1="340.9844" y2="340.9844"/><polygon fill="#181818" points="328.75,336.9844,318.75,340.9844,328.75,344.9844,324.75,340.9844" style="stroke:#181818;stroke-width:1.0;"/><line style="stroke:#181818;stroke-width:1.0;" x1="306.75" x2="306.75" y1="233.8906" y2="253.8906"/><polygon fill="#181818" points="302.75,243.8906,306.75,253.8906,310.75,243.8906,306.75,247.8906" style="stroke:#181818;stroke-width:1.0;"/><line style="stroke:#181818;stroke-width:1.0;" x1="306.75" x2="306.75" y1="352.9844" y2="372.9844"/><polygon fill="#181818" points="302.75,362.9844,306.75,372.9844,310.75,362.9844,306.75,366.9844" style="stroke:#181818;stroke-width:1.0;"/><line style="stroke:#181818;stroke-width:1.0;" x1="306.75" x2="306.75" y1="408.0781" y2="428.0781"/><polygon fill="#181818" points="302.75,418.0781,306.75,428.0781,310.75,418.0781,306.75,422.0781" style="stroke:#181818;stroke-width:1.0;"/><line style="stroke:#181818;stroke-width:1.0;" x1="306.75" x2="306.75" y1="463.1719" y2="483.1719"/><polygon fill="#181818" points="302.75,473.1719,306.75,483.1719,310.75,473.1719,306.75,477.1719" style="stroke:#181818;stroke-width:1.0;"/><line style="stroke:#181818;stroke-width:1.0;" x1="306.75" x2="306.75" y1="518.2656" y2="538.2656"/><polygon fill="#181818" points="302.75,528.2656,306.75,538.2656,310.75,528.2656,306.75,532.2656" style="stroke:#181818;stroke-width:1.0;"/><line style="stroke:#181818;stroke-width:1.0;" x1="306.75" x2="306.75" y1="617.3594" y2="650.2783"/><polygon fill="#181818" points="302.75,640.2783,306.75,650.2783,310.75,640.2783,306.75,644.2783" style="stroke:#181818;stroke-width:1.0;"/><line style="stroke:#181818;stroke-width:1.0;" x1="306.75" x2="306.75" y1="685.3721" y2="695.3721"/><line style="stroke:#181818;stroke-width:1.0;" x1="306.75" x2="424.25" y1="695.3721" y2="695.3721"/><polygon fill="#181818" points="420.25,658.9072,424.25,648.9072,428.25,658.9072,424.25,654.9072" style="stroke:#181818;stroke-width:1.0;"/><line style="stroke:#181818;stroke-width:1.0;" x1="424.25" x2="424.25" y1="605.3594" y2="695.3721"/><line style="stroke:#181818;stroke-width:1.0;" x1="424.25" x2="402.25" y1="605.3594" y2="605.3594"/><polygon fill="#181818" points="412.25,601.3594,402.25,605.3594,412.25,609.3594,408.25,605.3594" style="stroke:#181818;stroke-width:1.0;"/><line style="stroke:#181818;stroke-width:1.0;" x1="211.25" x2="189.25" y1="605.3594" y2="605.3594"/><polygon fill="#181818" points="185.25,644.9072,189.25,654.9072,193.25,644.9072,189.25,648.9072" style="stroke:#181818;stroke-width:1.0;"/><line style="stroke:#181818;stroke-width:1.0;" x1="189.25" x2="189.25" y1="605.3594" y2="707.3721"/><line style="stroke:#181818;stroke-width:1.0;" x1="189.25" x2="306.75" y1="707.3721" y2="707.3721"/><line style="stroke:#181818;stroke-width:1.0;" x1="306.75" x2="306.75" y1="707.3721" y2="727.3721"/><polygon fill="#181818" points="302.75,717.3721,306.75,727.3721,310.75,717.3721,306.75,721.3721" style="stroke:#181818;stroke-width:1.0;"/><line style="stroke:#181818;stroke-width:1.0;" x1="306.75" x2="306.75" y1="573.3594" y2="593.3594"/><polygon fill="#181818" points="302.75,583.3594,306.75,593.3594,310.75,583.3594,306.75,587.3594" style="stroke:#181818;stroke-width:1.0;"/><line style="stroke:#181818;stroke-width:1.0;" x1="74" x2="74" y1="940.6533" y2="975.6533"/><polygon fill="#181818" points="70,965.6533,74,975.6533,78,965.6533,74,969.6533" style="stroke:#181818;stroke-width:1.0;"/><line style="stroke:#181818;stroke-width:1.0;" x1="74" x2="74" y1="1010.7471" y2="1030.7471"/><polygon fill="#181818" points="70,1020.7471,74,1030.7471,78,1020.7471,74,1024.7471" style="stroke:#181818;stroke-width:1.0;"/><line style="stroke:#181818;stroke-width:1.0;" x1="84" x2="74" y1="883.5596" y2="883.5596"/><line style="stroke:#181818;stroke-width:1.0;" x1="74" x2="74" y1="883.5596" y2="905.5596"/><polygon fill="#181818" points="70,895.5596,74,905.5596,78,895.5596,74,899.5596" style="stroke:#181818;stroke-width:1.0;"/><line style="stroke:#181818;stroke-width:1.0;" x1="251" x2="261" y1="883.5596" y2="883.5596"/><line style="stroke:#181818;stroke-width:1.0;" x1="261" x2="261" y1="883.5596" y2="905.5596"/><polygon fill="#181818" points="257,895.5596,261,905.5596,265,895.5596,261,899.5596" style="stroke:#181818;stroke-width:1.0;"/><line style="stroke:#181818;stroke-width:1.0;" x1="74" x2="74" y1="1065.8408" y2="1083.8408"/><line style="stroke:#181818;stroke-width:1.0;" x1="74" x2="155.5" y1="1083.8408" y2="1083.8408"/><polygon fill="#181818" points="145.5,1079.8408,155.5,1083.8408,145.5,1087.8408,149.5,1083.8408" style="stroke:#181818;stroke-width:1.0;"/><line style="stroke:#181818;stroke-width:1.0;" x1="261" x2="261" y1="940.6533" y2="1083.8408"/><line style="stroke:#181818;stroke-width:1.0;" x1="261" x2="179.5" y1="1083.8408" y2="1083.8408"/><polygon fill="#181818" points="189.5,1079.8408,179.5,1083.8408,189.5,1087.8408,185.5,1083.8408" style="stroke:#181818;stroke-width:1.0;"/><line style="stroke:#181818;stroke-width:1.0;" x1="167.5" x2="167.5" y1="851.5596" y2="871.5596"/><polygon fill="#181818" points="163.5,861.5596,167.5,871.5596,171.5,861.5596,167.5,865.5596" style="stroke:#181818;stroke-width:1.0;"/><line style="stroke:#181818;stroke-width:1.0;" x1="446" x2="446" y1="851.5596" y2="871.5596"/><polygon fill="#181818" points="442,861.5596,446,871.5596,450,861.5596,446,865.5596" style="stroke:#181818;stroke-width:1.0;"/><line style="stroke:#181818;stroke-width:1.0;" x1="446" x2="446" y1="906.6533" y2="941.6533"/><polygon fill="#181818" points="442,931.6533,446,941.6533,450,931.6533,446,935.6533" style="stroke:#181818;stroke-width:1.0;"/><line style="stroke:#181818;stroke-width:1.0;" x1="256.75" x2="167.5" y1="794.4658" y2="794.4658"/><line style="stroke:#181818;stroke-width:1.0;" x1="167.5" x2="167.5" y1="794.4658" y2="816.4658"/><polygon fill="#181818" points="163.5,806.4658,167.5,816.4658,171.5,806.4658,167.5,810.4658" style="stroke:#181818;stroke-width:1.0;"/><line style="stroke:#181818;stroke-width:1.0;" x1="356.75" x2="446" y1="794.4658" y2="794.4658"/><line style="stroke:#181818;stroke-width:1.0;" x1="446" x2="446" y1="794.4658" y2="816.4658"/><polygon fill="#181818" points="442,806.4658,446,816.4658,450,806.4658,446,810.4658" style="stroke:#181818;stroke-width:1.0;"/><line style="stroke:#181818;stroke-width:1.0;" x1="167.5" x2="167.5" y1="1095.8408" y2="1113.8408"/><line style="stroke:#181818;stroke-width:1.0;" x1="167.5" x2="294.75" y1="1113.8408" y2="1113.8408"/><polygon fill="#181818" points="284.75,1109.8408,294.75,1113.8408,284.75,1117.8408,288.75,1113.8408" style="stroke:#181818;stroke-width:1.0;"/><line style="stroke:#181818;stroke-width:1.0;" x1="446" x2="446" y1="976.7471" y2="1113.8408"/><line style="stroke:#181818;stroke-width:1.0;" x1="446" x2="318.75" y1="1113.8408" y2="1113.8408"/><polygon fill="#181818" points="328.75,1109.8408,318.75,1113.8408,328.75,1117.8408,324.75,1113.8408" style="stroke:#181818;stroke-width:1.0;"/><line style="stroke:#181818;stroke-width:1.0;" x1="306.75" x2="306.75" y1="762.4658" y2="782.4658"/><polygon fill="#181818" points="302.75,772.4658,306.75,782.4658,310.75,772.4658,306.75,776.4658" style="stroke:#181818;stroke-width:1.0;"/><line style="stroke:#181818;stroke-width:1.0;" x1="592.25" x2="592.25" y1="1248.9346" y2="1268.9346"/><polygon fill="#181818" points="588.25,1258.9346,592.25,1268.9346,596.25,1258.9346,592.25,1262.9346" style="stroke:#181818;stroke-width:1.0;"/><line style="stroke:#181818;stroke-width:1.0;" x1="420.25" x2="367.25" y1="1191.8408" y2="1191.8408"/><line style="stroke:#181818;stroke-width:1.0;" x1="367.25" x2="367.25" y1="1191.8408" y2="1213.8408"/><polygon fill="#181818" points="363.25,1203.8408,367.25,1213.8408,371.25,1203.8408,367.25,1207.8408" style="stroke:#181818;stroke-width:1.0;"/><line style="stroke:#181818;stroke-width:1.0;" x1="539.25" x2="592.25" y1="1191.8408" y2="1191.8408"/><line style="stroke:#181818;stroke-width:1.0;" x1="592.25" x2="592.25" y1="1191.8408" y2="1213.8408"/><polygon fill="#181818" points="588.25,1203.8408,592.25,1213.8408,596.25,1203.8408,592.25,1207.8408" style="stroke:#181818;stroke-width:1.0;"/><line style="stroke:#181818;stroke-width:1.0;" x1="367.25" x2="367.25" y1="1248.9346" y2="1322.0283"/><line style="stroke:#181818;stroke-width:1.0;" x1="367.25" x2="467.75" y1="1322.0283" y2="1322.0283"/><polygon fill="#181818" points="457.75,1318.0283,467.75,1322.0283,457.75,1326.0283,461.75,1322.0283" style="stroke:#181818;stroke-width:1.0;"/><line style="stroke:#181818;stroke-width:1.0;" x1="592.25" x2="592.25" y1="1304.0283" y2="1322.0283"/><line style="stroke:#181818;stroke-width:1.0;" x1="592.25" x2="491.75" y1="1322.0283" y2="1322.0283"/><polygon fill="#181818" points="501.75,1318.0283,491.75,1322.0283,501.75,1326.0283,497.75,1322.0283" style="stroke:#181818;stroke-width:1.0;"/><line style="stroke:#181818;stroke-width:1.0;" x1="248.25" x2="133.75" y1="1157.8408" y2="1157.8408"/><line style="stroke:#181818;stroke-width:1.0;" x1="133.75" x2="133.75" y1="1157.8408" y2="1179.8408"/><polygon fill="#181818" points="129.75,1169.8408,133.75,1179.8408,137.75,1169.8408,133.75,1173.8408" style="stroke:#181818;stroke-width:1.0;"/><line style="stroke:#181818;stroke-width:1.0;" x1="365.25" x2="479.75" y1="1157.8408" y2="1157.8408"/><line style="stroke:#181818;stroke-width:1.0;" x1="479.75" x2="479.75" y1="1157.8408" y2="1179.8408"/><polygon fill="#181818" points="475.75,1169.8408,479.75,1179.8408,483.75,1169.8408,479.75,1173.8408" style="stroke:#181818;stroke-width:1.0;"/><line style="stroke:#181818;stroke-width:1.0;" x1="133.75" x2="133.75" y1="1214.9346" y2="1352.0283"/><line style="stroke:#181818;stroke-width:1.0;" x1="133.75" x2="294.75" y1="1352.0283" y2="1352.0283"/><polygon fill="#181818" points="284.75,1348.0283,294.75,1352.0283,284.75,1356.0283,288.75,1352.0283" style="stroke:#181818;stroke-width:1.0;"/><line style="stroke:#181818;stroke-width:1.0;" x1="479.75" x2="479.75" y1="1334.0283" y2="1352.0283"/><line style="stroke:#181818;stroke-width:1.0;" x1="479.75" x2="318.75" y1="1352.0283" y2="1352.0283"/><polygon fill="#181818" points="328.75,1348.0283,318.75,1352.0283,328.75,1356.0283,324.75,1352.0283" style="stroke:#181818;stroke-width:1.0;"/><line style="stroke:#181818;stroke-width:1.0;" x1="306.75" x2="306.75" y1="1125.8408" y2="1145.8408"/><polygon fill="#181818" points="302.75,1135.8408,306.75,1145.8408,310.75,1135.8408,306.75,1139.8408" style="stroke:#181818;stroke-width:1.0;"/><line style="stroke:#181818;stroke-width:1.0;" x1="306.75" x2="306.75" y1="1364.0283" y2="1384.0283"/><polygon fill="#181818" points="302.75,1374.0283,306.75,1384.0283,310.75,1374.0283,306.75,1378.0283" style="stroke:#181818;stroke-width:1.0;"/><!--SRC=[bLBBRjim4BphA_Re7Fe3rg50d00vD6qG9UwPfLOnORwmIzfHlxvyrNQJ24XreZYpt9dP3IfeXEz6UDXiRs6GmbfbNq3O4PwzTcA4duxsatR7hkCWA7JhZVCpi2Jb0mG7XCO5XErztwrlNr76zDFG2kaP3ah0CDprNRSUAZHYG3BA8YUoi63SYAMhHveScNhTTsg2rN0YA0RlA7ozWh132wiP-Qg3zAqVQbc1MobgHbXPzuQHVJQ27TMK93rY88K7h4e8EUh0MUl6sGDI-7kLtTuztNy3ZiO8cllCC3wXt2WmAOsbj8NtG4vcUCZHzTrnbt1OFJEI5QOP5in7HoD8HuGocqisBtHJwX4WffeQznUqAJkGX6CwAQ6vM6blbqYIi1tAFIJrh5oBSLj_05yL1pvbU6gq8HHfTgUQV7bP9pEU3nnbDZL5_NuGvQLc_hVo9P3-ZFpu5OIo42j1Axk_09k0w_W2JoJa7gc2_mwoK1-n3FhmLjeab8xKEjRvrkhpfdmeRb7OXwBQudnsDsyKUotckZjKbQTLNDxLTm-ddLs8UkdjyvOl9FW9KV_RfCPTi-7W_1y0]--></g></svg>