<?xml version="1.0" encoding="us-ascii" standalone="no"?><svg xmlns="http://www.w3.org/2000/svg" xmlns:xlink="http://www.w3.org/1999/xlink" contentStyleType="text/css" height="1178px" preserveAspectRatio="none" style="width:520px;height:1178px;background:#FFFFFF;" version="1.1" viewBox="0 0 520 1178" width="520px" zoomAndPan="magnify"><defs/><g><text fill="#000000" font-family="sans-serif" font-size="14" font-weight="bold" lengthAdjust="spacing" textLength="372" x="72.5" y="34.5332">JSON to Excel to HTML Workflow and Upload Process</text><ellipse cx="306.75" cy="58.6094" fill="#222222" rx="10" ry="10" style="stroke:#222222;stroke-width:1.0;"/><polygon fill="#F1F1F1" points="265.75,88.6094,347.75,88.6094,359.75,100.6094,347.75,112.6094,265.75,112.6094,253.75,100.6094,265.75,88.6094" style="stroke:#181818;stroke-width:0.5;"/><text fill="#000000" font-family="sans-serif" font-size="11" lengthAdjust="spacing" textLength="82" x="265.75" y="105.1104">JSON files exist?</text><text fill="#000000" font-family="sans-serif" font-size="11" lengthAdjust="spacing" textLength="18" x="235.75" y="98.1924">yes</text><text fill="#000000" font-family="sans-serif" font-size="11" lengthAdjust="spacing" textLength="12" x="359.75" y="98.1924">no</text><rect fill="#F1F1F1" height="35.0938" rx="12.5" ry="12.5" style="stroke:#181818;stroke-width:0.5;" width="111" x="164.25" y="122.6094"/><text fill="#000000" font-family="sans-serif" font-size="12" lengthAdjust="spacing" textLength="91" x="174.25" y="145.0664">Read JSON files</text><rect fill="#F1F1F1" height="35.0938" rx="12.5" ry="12.5" style="stroke:#181818;stroke-width:0.5;" width="142" x="148.75" y="177.7031"/><text fill="#000000" font-family="sans-serif" font-size="12" lengthAdjust="spacing" textLength="122" x="158.75" y="200.1602">Convert JSON to Excel</text><rect fill="#F1F1F1" height="35.0938" rx="12.5" ry="12.5" style="stroke:#181818;stroke-width:0.5;" width="166" x="310.75" y="122.6094"/><text fill="#000000" font-family="sans-serif" font-size="12" lengthAdjust="spacing" textLength="146" x="320.75" y="145.0664">Directly process Excel files</text><polygon fill="#F1F1F1" points="306.75,218.7969,318.75,230.7969,306.75,242.7969,294.75,230.7969,306.75,218.7969" style="stroke:#181818;stroke-width:0.5;"/><rect fill="#F1F1F1" height="35.0938" rx="12.5" ry="12.5" style="stroke:#181818;stroke-width:0.5;" width="191" x="211.25" y="262.7969"/><text fill="#000000" font-family="sans-serif" font-size="12" lengthAdjust="spacing" textLength="171" x="221.25" y="285.2539">Rank the data based on criteria</text><rect fill="#F1F1F1" height="35.0938" rx="12.5" ry="12.5" style="stroke:#181818;stroke-width:0.5;" width="130" x="241.75" y="317.8906"/><text fill="#000000" font-family="sans-serif" font-size="12" lengthAdjust="spacing" textLength="110" x="251.75" y="340.3477">Summarize the data</text><rect fill="#F1F1F1" height="35.0938" rx="12.5" ry="12.5" style="stroke:#181818;stroke-width:0.5;" width="174" x="219.75" y="372.9844"/><text fill="#000000" font-family="sans-serif" font-size="12" lengthAdjust="spacing" textLength="154" x="229.75" y="395.4414">Group by product categories</text><rect fill="#F1F1F1" height="35.0938" rx="12.5" ry="12.5" style="stroke:#181818;stroke-width:0.5;" width="141" x="236.25" y="428.0781"/><text fill="#000000" font-family="sans-serif" font-size="12" lengthAdjust="spacing" textLength="121" x="246.25" y="450.5352">Generate HTML report</text><rect fill="#F1F1F1" height="35.0938" rx="12.5" ry="12.5" style="stroke:#181818;stroke-width:0.5;" width="211" x="201.25" y="483.1719"/><text fill="#000000" font-family="sans-serif" font-size="12" lengthAdjust="spacing" textLength="191" x="211.25" y="505.6289">Compress the file into a zip archive</text><rect fill="#F1F1F1" height="35.0938" rx="12.5" ry="12.5" style="stroke:#181818;stroke-width:0.5;" width="137" x="238.25" y="538.2656"/><text fill="#000000" font-family="sans-serif" font-size="12" lengthAdjust="spacing" textLength="117" x="248.25" y="560.7227">Upload Process Start</text><rect fill="#F1F1F1" height="35.0938" rx="12.5" ry="12.5" style="stroke:#181818;stroke-width:0.5;" width="211" x="201.25" y="650.2783"/><text fill="#000000" font-family="sans-serif" font-size="12" lengthAdjust="spacing" textLength="191" x="211.25" y="672.7354">Prompt user to re-enter credentials</text><polygon fill="#F1F1F1" points="223.25,593.3594,390.25,593.3594,402.25,605.3594,390.25,617.3594,223.25,617.3594,211.25,605.3594,223.25,593.3594" style="stroke:#181818;stroke-width:0.5;"/><text fill="#000000" font-family="sans-serif" font-size="11" lengthAdjust="spacing" textLength="12" x="310.75" y="628.7783">no</text><text fill="#000000" font-family="sans-serif" font-size="11" lengthAdjust="spacing" textLength="167" x="223.25" y="609.8604">Username and password correct?</text><text fill="#000000" font-family="sans-serif" font-size="11" lengthAdjust="spacing" textLength="18" x="193.25" y="602.9424">yes</text><rect fill="#F1F1F1" height="35.0938" rx="12.5" ry="12.5" style="stroke:#181818;stroke-width:0.5;" width="98" x="257.75" y="727.3721"/><text fill="#000000" font-family="sans-serif" font-size="12" lengthAdjust="spacing" textLength="78" x="267.75" y="749.8291">Check version</text><polygon fill="#F1F1F1" points="268.75,782.4658,344.75,782.4658,356.75,794.4658,344.75,806.4658,268.75,806.4658,256.75,794.4658,268.75,782.4658" style="stroke:#181818;stroke-width:0.5;"/><text fill="#000000" font-family="sans-serif" font-size="11" lengthAdjust="spacing" textLength="76" x="268.75" y="798.9668">Version exists?</text><text fill="#000000" font-family="sans-serif" font-size="11" lengthAdjust="spacing" textLength="12" x="244.75" y="792.0488">no</text><text fill="#000000" font-family="sans-serif" font-size="11" lengthAdjust="spacing" textLength="18" x="356.75" y="792.0488">yes</text><rect fill="#F1F1F1" height="35.0938" rx="12.5" ry="12.5" style="stroke:#181818;stroke-width:0.5;" width="100" x="117.5" y="816.4658"/><text fill="#000000" font-family="sans-serif" font-size="12" lengthAdjust="spacing" textLength="80" x="127.5" y="838.9229">Create version</text><polygon fill="#F1F1F1" points="96,871.5596,239,871.5596,251,883.5596,239,895.5596,96,895.5596,84,883.5596,96,871.5596" style="stroke:#181818;stroke-width:0.5;"/><text fill="#000000" font-family="sans-serif" font-size="11" lengthAdjust="spacing" textLength="143" x="96" y="888.0605">Version creation successful?</text><text fill="#000000" font-family="sans-serif" font-size="11" lengthAdjust="spacing" textLength="18" x="66" y="881.1426">yes</text><text fill="#000000" font-family="sans-serif" font-size="11" lengthAdjust="spacing" textLength="12" x="251" y="881.1426">no</text><rect fill="#F1F1F1" height="35.0938" rx="12.5" ry="12.5" style="stroke:#181818;stroke-width:0.5;" width="97" x="25.5" y="905.5596"/><text fill="#000000" font-family="sans-serif" font-size="12" lengthAdjust="spacing" textLength="77" x="35.5" y="928.0166">Upload zip file</text><rect fill="#F1F1F1" height="35.0938" rx="12.5" ry="12.5" style="stroke:#181818;stroke-width:0.5;" width="119" x="14.5" y="975.6533"/><text fill="#000000" font-family="sans-serif" font-size="12" lengthAdjust="spacing" textLength="99" x="24.5" y="998.1104">Obtain upload link</text><rect fill="#F1F1F1" height="35.0938" rx="12.5" ry="12.5" style="stroke:#181818;stroke-width:0.5;" width="126" x="11" y="1030.7471"/><text fill="#000000" font-family="sans-serif" font-size="12" lengthAdjust="spacing" textLength="106" x="21" y="1053.2041">Create Bug Tracker</text><rect fill="#F1F1F1" height="35.0938" rx="12.5" ry="12.5" style="stroke:#181818;stroke-width:0.5;" width="184" x="169" y="905.5596"/><text fill="#000000" font-family="sans-serif" font-size="12" lengthAdjust="spacing" textLength="164" x="179" y="928.0166">Report version creation failure</text><polygon fill="#F1F1F1" points="167.5,1071.8408,179.5,1083.8408,167.5,1095.8408,155.5,1083.8408,167.5,1071.8408" style="stroke:#181818;stroke-width:0.5;"/><rect fill="#F1F1F1" height="35.0938" rx="12.5" ry="12.5" style="stroke:#181818;stroke-width:0.5;" width="97" x="397.5" y="816.4658"/><text fill="#000000" font-family="sans-serif" font-size="12" lengthAdjust="spacing" textLength="77" x="407.5" y="838.9229">Upload zip file</text><rect fill="#F1F1F1" height="35.0938" rx="12.5" ry="12.5" style="stroke:#181818;stroke-width:0.5;" width="119" x="386.5" y="871.5596"/><text fill="#000000" font-family="sans-serif" font-size="12" lengthAdjust="spacing" textLength="99" x="396.5" y="894.0166">Obtain upload link</text><rect fill="#F1F1F1" height="35.0938" rx="12.5" ry="12.5" style="stroke:#181818;stroke-width:0.5;" width="126" x="383" y="941.6533"/><text fill="#000000" font-family="sans-serif" font-size="12" lengthAdjust="spacing" textLength="106" x="393" y="964.1104">Create Bug Tracker</text><polygon fill="#F1F1F1" points="306.75,1101.8408,318.75,1113.8408,306.75,1125.8408,294.75,1113.8408,306.75,1101.8408" style="stroke:#181818;stroke-width:0.5;"/><ellipse cx="306.75" cy="1156.8408" fill="none" rx="11" ry="11" style="stroke:#222222;stroke-width:1.0;"/><ellipse cx="306.75" cy="1156.8408" fill="#222222" rx="6" ry="6" style="stroke:#222222;stroke-width:1.0;"/><line style="stroke:#181818;stroke-width:1.0;" x1="219.75" x2="219.75" y1="157.7031" y2="177.7031"/><polygon fill="#181818" points="215.75,167.7031,219.75,177.7031,223.75,167.7031,219.75,171.7031" style="stroke:#181818;stroke-width:1.0;"/><line style="stroke:#181818;stroke-width:1.0;" x1="253.75" x2="219.75" y1="100.6094" y2="100.6094"/><line style="stroke:#181818;stroke-width:1.0;" x1="219.75" x2="219.75" y1="100.6094" y2="122.6094"/><polygon fill="#181818" points="215.75,112.6094,219.75,122.6094,223.75,112.6094,219.75,116.6094" style="stroke:#181818;stroke-width:1.0;"/><line style="stroke:#181818;stroke-width:1.0;" x1="359.75" x2="393.75" y1="100.6094" y2="100.6094"/><line style="stroke:#181818;stroke-width:1.0;" x1="393.75" x2="393.75" y1="100.6094" y2="122.6094"/><polygon fill="#181818" points="389.75,112.6094,393.75,122.6094,397.75,112.6094,393.75,116.6094" style="stroke:#181818;stroke-width:1.0;"/><line style="stroke:#181818;stroke-width:1.0;" x1="219.75" x2="219.75" y1="212.7969" y2="230.7969"/><line style="stroke:#181818;stroke-width:1.0;" x1="219.75" x2="294.75" y1="230.7969" y2="230.7969"/><polygon fill="#181818" points="284.75,226.7969,294.75,230.7969,284.75,234.7969,288.75,230.7969" style="stroke:#181818;stroke-width:1.0;"/><line style="stroke:#181818;stroke-width:1.0;" x1="393.75" x2="393.75" y1="157.7031" y2="230.7969"/><line style="stroke:#181818;stroke-width:1.0;" x1="393.75" x2="318.75" y1="230.7969" y2="230.7969"/><polygon fill="#181818" points="328.75,226.7969,318.75,230.7969,328.75,234.7969,324.75,230.7969" style="stroke:#181818;stroke-width:1.0;"/><line style="stroke:#181818;stroke-width:1.0;" x1="306.75" x2="306.75" y1="68.6094" y2="88.6094"/><polygon fill="#181818" points="302.75,78.6094,306.75,88.6094,310.75,78.6094,306.75,82.6094" style="stroke:#181818;stroke-width:1.0;"/><line style="stroke:#181818;stroke-width:1.0;" x1="306.75" x2="306.75" y1="242.7969" y2="262.7969"/><polygon fill="#181818" points="302.75,252.7969,306.75,262.7969,310.75,252.7969,306.75,256.7969" style="stroke:#181818;stroke-width:1.0;"/><line style="stroke:#181818;stroke-width:1.0;" x1="306.75" x2="306.75" y1="297.8906" y2="317.8906"/><polygon fill="#181818" points="302.75,307.8906,306.75,317.8906,310.75,307.8906,306.75,311.8906" style="stroke:#181818;stroke-width:1.0;"/><line style="stroke:#181818;stroke-width:1.0;" x1="306.75" x2="306.75" y1="352.9844" y2="372.9844"/><polygon fill="#181818" points="302.75,362.9844,306.75,372.9844,310.75,362.9844,306.75,366.9844" style="stroke:#181818;stroke-width:1.0;"/><line style="stroke:#181818;stroke-width:1.0;" x1="306.75" x2="306.75" y1="408.0781" y2="428.0781"/><polygon fill="#181818" points="302.75,418.0781,306.75,428.0781,310.75,418.0781,306.75,422.0781" style="stroke:#181818;stroke-width:1.0;"/><line style="stroke:#181818;stroke-width:1.0;" x1="306.75" x2="306.75" y1="463.1719" y2="483.1719"/><polygon fill="#181818" points="302.75,473.1719,306.75,483.1719,310.75,473.1719,306.75,477.1719" style="stroke:#181818;stroke-width:1.0;"/><line style="stroke:#181818;stroke-width:1.0;" x1="306.75" x2="306.75" y1="518.2656" y2="538.2656"/><polygon fill="#181818" points="302.75,528.2656,306.75,538.2656,310.75,528.2656,306.75,532.2656" style="stroke:#181818;stroke-width:1.0;"/><line style="stroke:#181818;stroke-width:1.0;" x1="306.75" x2="306.75" y1="617.3594" y2="650.2783"/><polygon fill="#181818" points="302.75,640.2783,306.75,650.2783,310.75,640.2783,306.75,644.2783" style="stroke:#181818;stroke-width:1.0;"/><line style="stroke:#181818;stroke-width:1.0;" x1="306.75" x2="306.75" y1="685.3721" y2="695.3721"/><line style="stroke:#181818;stroke-width:1.0;" x1="306.75" x2="424.25" y1="695.3721" y2="695.3721"/><polygon fill="#181818" points="420.25,658.9072,424.25,648.9072,428.25,658.9072,424.25,654.9072" style="stroke:#181818;stroke-width:1.0;"/><line style="stroke:#181818;stroke-width:1.0;" x1="424.25" x2="424.25" y1="605.3594" y2="695.3721"/><line style="stroke:#181818;stroke-width:1.0;" x1="424.25" x2="402.25" y1="605.3594" y2="605.3594"/><polygon fill="#181818" points="412.25,601.3594,402.25,605.3594,412.25,609.3594,408.25,605.3594" style="stroke:#181818;stroke-width:1.0;"/><line style="stroke:#181818;stroke-width:1.0;" x1="211.25" x2="189.25" y1="605.3594" y2="605.3594"/><polygon fill="#181818" points="185.25,644.9072,189.25,654.9072,193.25,644.9072,189.25,648.9072" style="stroke:#181818;stroke-width:1.0;"/><line style="stroke:#181818;stroke-width:1.0;" x1="189.25" x2="189.25" y1="605.3594" y2="707.3721"/><line style="stroke:#181818;stroke-width:1.0;" x1="189.25" x2="306.75" y1="707.3721" y2="707.3721"/><line style="stroke:#181818;stroke-width:1.0;" x1="306.75" x2="306.75" y1="707.3721" y2="727.3721"/><polygon fill="#181818" points="302.75,717.3721,306.75,727.3721,310.75,717.3721,306.75,721.3721" style="stroke:#181818;stroke-width:1.0;"/><line style="stroke:#181818;stroke-width:1.0;" x1="306.75" x2="306.75" y1="573.3594" y2="593.3594"/><polygon fill="#181818" points="302.75,583.3594,306.75,593.3594,310.75,583.3594,306.75,587.3594" style="stroke:#181818;stroke-width:1.0;"/><line style="stroke:#181818;stroke-width:1.0;" x1="74" x2="74" y1="940.6533" y2="975.6533"/><polygon fill="#181818" points="70,965.6533,74,975.6533,78,965.6533,74,969.6533" style="stroke:#181818;stroke-width:1.0;"/><line style="stroke:#181818;stroke-width:1.0;" x1="74" x2="74" y1="1010.7471" y2="1030.7471"/><polygon fill="#181818" points="70,1020.7471,74,1030.7471,78,1020.7471,74,1024.7471" style="stroke:#181818;stroke-width:1.0;"/><line style="stroke:#181818;stroke-width:1.0;" x1="84" x2="74" y1="883.5596" y2="883.5596"/><line style="stroke:#181818;stroke-width:1.0;" x1="74" x2="74" y1="883.5596" y2="905.5596"/><polygon fill="#181818" points="70,895.5596,74,905.5596,78,895.5596,74,899.5596" style="stroke:#181818;stroke-width:1.0;"/><line style="stroke:#181818;stroke-width:1.0;" x1="251" x2="261" y1="883.5596" y2="883.5596"/><line style="stroke:#181818;stroke-width:1.0;" x1="261" x2="261" y1="883.5596" y2="905.5596"/><polygon fill="#181818" points="257,895.5596,261,905.5596,265,895.5596,261,899.5596" style="stroke:#181818;stroke-width:1.0;"/><line style="stroke:#181818;stroke-width:1.0;" x1="74" x2="74" y1="1065.8408" y2="1083.8408"/><line style="stroke:#181818;stroke-width:1.0;" x1="74" x2="155.5" y1="1083.8408" y2="1083.8408"/><polygon fill="#181818" points="145.5,1079.8408,155.5,1083.8408,145.5,1087.8408,149.5,1083.8408" style="stroke:#181818;stroke-width:1.0;"/><line style="stroke:#181818;stroke-width:1.0;" x1="261" x2="261" y1="940.6533" y2="1083.8408"/><line style="stroke:#181818;stroke-width:1.0;" x1="261" x2="179.5" y1="1083.8408" y2="1083.8408"/><polygon fill="#181818" points="189.5,1079.8408,179.5,1083.8408,189.5,1087.8408,185.5,1083.8408" style="stroke:#181818;stroke-width:1.0;"/><line style="stroke:#181818;stroke-width:1.0;" x1="167.5" x2="167.5" y1="851.5596" y2="871.5596"/><polygon fill="#181818" points="163.5,861.5596,167.5,871.5596,171.5,861.5596,167.5,865.5596" style="stroke:#181818;stroke-width:1.0;"/><line style="stroke:#181818;stroke-width:1.0;" x1="446" x2="446" y1="851.5596" y2="871.5596"/><polygon fill="#181818" points="442,861.5596,446,871.5596,450,861.5596,446,865.5596" style="stroke:#181818;stroke-width:1.0;"/><line style="stroke:#181818;stroke-width:1.0;" x1="446" x2="446" y1="906.6533" y2="941.6533"/><polygon fill="#181818" points="442,931.6533,446,941.6533,450,931.6533,446,935.6533" style="stroke:#181818;stroke-width:1.0;"/><line style="stroke:#181818;stroke-width:1.0;" x1="256.75" x2="167.5" y1="794.4658" y2="794.4658"/><line style="stroke:#181818;stroke-width:1.0;" x1="167.5" x2="167.5" y1="794.4658" y2="816.4658"/><polygon fill="#181818" points="163.5,806.4658,167.5,816.4658,171.5,806.4658,167.5,810.4658" style="stroke:#181818;stroke-width:1.0;"/><line style="stroke:#181818;stroke-width:1.0;" x1="356.75" x2="446" y1="794.4658" y2="794.4658"/><line style="stroke:#181818;stroke-width:1.0;" x1="446" x2="446" y1="794.4658" y2="816.4658"/><polygon fill="#181818" points="442,806.4658,446,816.4658,450,806.4658,446,810.4658" style="stroke:#181818;stroke-width:1.0;"/><line style="stroke:#181818;stroke-width:1.0;" x1="167.5" x2="167.5" y1="1095.8408" y2="1113.8408"/><line style="stroke:#181818;stroke-width:1.0;" x1="167.5" x2="294.75" y1="1113.8408" y2="1113.8408"/><polygon fill="#181818" points="284.75,1109.8408,294.75,1113.8408,284.75,1117.8408,288.75,1113.8408" style="stroke:#181818;stroke-width:1.0;"/><line style="stroke:#181818;stroke-width:1.0;" x1="446" x2="446" y1="976.7471" y2="1113.8408"/><line style="stroke:#181818;stroke-width:1.0;" x1="446" x2="318.75" y1="1113.8408" y2="1113.8408"/><polygon fill="#181818" points="328.75,1109.8408,318.75,1113.8408,328.75,1117.8408,324.75,1113.8408" style="stroke:#181818;stroke-width:1.0;"/><line style="stroke:#181818;stroke-width:1.0;" x1="306.75" x2="306.75" y1="762.4658" y2="782.4658"/><polygon fill="#181818" points="302.75,772.4658,306.75,782.4658,310.75,772.4658,306.75,776.4658" style="stroke:#181818;stroke-width:1.0;"/><line style="stroke:#181818;stroke-width:1.0;" x1="306.75" x2="306.75" y1="1125.8408" y2="1145.8408"/><polygon fill="#181818" points="302.75,1135.8408,306.75,1145.8408,310.75,1135.8408,306.75,1139.8408" style="stroke:#181818;stroke-width:1.0;"/><!--SRC=[TLDDKzmm3BtxL-Yu7Fe7aaDds7ReTA0mBD2prb5OJHpR8piiyEknudG_ff2J8_azFJt9cRCZ-Bsv_GCvmCzNIquFlnvkhk5laA5tOG_eEtYCBc07Tn8ifMHCoYZPS0-h6TopemJqoYb_lu2y8m-hDqeN1ihNt5E17k-rDReE_eKadrTl3Rb4iF9XmVvW8PlT6yHQUX6v497lk3VDFVf1gqA76M6BYJe87gnm9c5iJREPnX65t-bmhGIl94mHjZDtDzaC5ZCz1s6bRgx8avH0TKCe1iabl0vZ51MYH2e3s1Vr2EyS0SNk-8LQOvfpns2ZXhLclrF4wZ6HU1nfzZPYIliW7TWWscnnaDE91OLYZ1ccWb6VXBwHBtsLzgWh9qPNdLYuPz-RzOxi0CNWnC6tywIUwayTKphCwL1dBQJj7Z0QFCLPpUiXJLPxwYVt_x1dfgLtTKGTQe-Pssr6zZ3L2uxzS99S15nEp_0WQ0UIcZnVYMMbT1p_j1wbzSXkagLYtOwAFcxZf-A-5FQfg4fS7a687m00]--></g></svg>